<?xml version="1.0" encoding="UTF-8"?><svg id="a" xmlns="http://www.w3.org/2000/svg" viewBox="0 0 629.45 720"><defs><style>.b{fill:#1d1d1b;fill-rule:evenodd;}</style></defs><path class="b" d="M260.64,5.99c-3.08,3.82-10.86,2.1-15.54,1.48,4.68-1.85,10.24-1.48,15.54-1.48h0Zm63.79,6.66l.74-.74c.74,.49,1.11,1.73,2.22,1.48l.74-.74,3.7,2.96-.74,.74c1.24,2.22,5.06-1.48,2.96,2.22l.74,.74,2.96-3.7-2.22-1.48c4.69,.12,7.77,7.52,13.33,9.62-.25,.61,.25,.99,.74,1.48l1.48-1.48c1.97,2.71,6.29,7.89,8.88,11.1l-.74,.74-3.7-2.96-1.48,4.44-2.96-3.7c-.49,.37-.87,.99-1.48,.74-.49-.49-.99-.87-.74-1.48l1.48-1.48c-1.11-4.56-6.42-5.43-8.15-9.62-2.59,.99-2.96-1.61-3.7-2.96-1.36,1.11-2.35,2.84-4.44,2.22-.25-.74,.25-1.11,.74-1.48-.49-.49-.86-.99-1.48-.74l-1.48,1.48-.74-3.7-2.96,2.22c-1.85-5.67-2.6-1.85-5.93-4.44l.74-.74c-3.58,1.23-6.91-3.83-9.62-5.18,4.56,1.35,7.15,1.23,11.1,4.44h0Zm-18.63-.74c-.37,.86-1.35,.61-2.22,.74v-1.48c.87,0,1.85-.25,2.22,.74h0Zm-37.01,5.18c-1.73-2.22-4.44-1.85-6.67-2.96,11.97-1.61,26.16,4.56,31.83,11.84,2.96-.61,4.44,1.98,6.67,2.96l-1.48,1.48c2.09,.25,3.95,2.72,5.92,.74,2.84,3.21,5.43-.24,8.27,2.96l1.48-1.48c-4.07-1.73-7.15-5.8-11.23-7.4l-.73,.73c-1.23-4.19-7.77-6.41-11.1-11.1l.74-.73c7.27,4.32,12.83,9.38,19.37,14.06,2.47,0,7.89-.74,8.88,3.7l-5.18,.74c-.87,1.85,1.48,2.47,2.22,3.7l.74-.73c.73,.98,2.22,1.6,2.22,2.96l-.74,.74-1.48-1.48-2.22,2.22c1.97,3.46,6.05,4.07,8.88,3.7-3.08,.62-1.85,2.59-1.48,4.44,.13,1.97,3.33,2.59,2.22,5.18l3.7,3.7,.74-.74c0,2.34,1.85,6.53,4.44,8.14l1.48-1.48-2.22-1.48,1.48-1.48-2.22-1.48c4.69-.86,1.48,2.6,4.44,4.44l-1.48,1.48,.74,.74-2.22,1.48c4.32,.61-.12,5.18,4.44,5.92,1.23,2.59,0,7.4,4.44,7.4v1.48c-.74,.25-1.11-.37-1.48-.74-.99,.49-.74,1.36-.74,2.22,1.36,.49,4.69,.74,5.93-1.48v-5.18c4.32,7.4,.86,17.15,2.96,23.69h-1.48c-.49-2.35,1.36-6.91-.74-8.89l.74-.74c-.49-1.35-1.97-.49-2.96-.73l-1.48,2.96,2.22,1.48c-1.85,4.56-2.22,3.58-5.93,6.66,2.59,1.36,.74,3.46,.74,5.18h-1.48c-1.85-2.71,.73-5.18-3.7-5.18l-.74,.74,2.22,2.22-1.48,1.48,2.96,2.22-2.96,1.48c3.82,1.6-2.47,3.7,.74,5.92l-2.96,.74,.74,.74c-.49,.99-1.48,.74-2.22,.74l-.74-.74,2.22-1.48c-3.82-3.21,1.11-1.85,1.48-5.18-.86-.74-1.6-1.98-2.96-1.48l-.74,2.22,.74-.74c-.62-1.36-2.1-.5-2.96-.74-2.1,1.11,.49,2.47,.74,2.96l-4.44,1.48c1.23,.49,.49,1.97,.74,2.96l-5.18,3.7,2.22,2.96-2.22,1.48c1.36-1.85-3.33-1.6-.74-3.7-1.48-1.97-2.96,.49-4.44,.74-2.47-.99-1.11-5.06-4.44-4.45l-.74,.74c-.49-.99-.25-2.72-2.22-2.96l-1.48,1.48c4.44,2.59,3.33,8.02,6.66,10.36-2.47,5.92,2.72,13.2,0,20.73l-1.48-8.14c-2.47-.62-1.48-6.79-3.7-9.62l-7.52-.74,.74-.74c-.74-.86-1.85-1.6-1.48-2.96l1.48-1.48c-1.36-.74-3.95-1.11-2.96-3.7l2.22-1.48c-5.18,.5-1.97-6.17-4.44-7.4l-1.48,1.47-2.22-2.22,.74-.74c-.74-1.24-2.96-1.73-2.22-3.71l.74-.74-2.96-2.96-2.22,2.22c-.12-2.22-2.34-2.59-2.96-4.44-.74,0-1.73-.13-2.22,.73-.86,1.98,1.48,2.1,2.22,2.96-.74,.49-1.11,1.73-2.22,1.48,1.73-3.33-3.82-7.03-2.22-11.1l-2.96-1.48c1.35-2.22,2.34,.99,3.7,.74l.74,2.22c3.82-1.48,6.29,4.44,10.36,4.44,6.41,3.08,9.87,9.87,14.93,14.8l3.7-.74c1.85-3.08-3.82-3.82-5.3-3.7l.74-.74c-8.26-11.97-23.07-17.77-35.53-24.43v-2.96c2.71,.99,5.8,3.46,8.14,2.96-3.21-2.09-1.48-6.91-5.18-8.14-.37,.37-.74,.99-1.48,.74l-.73-.74c1.6-.13,3.2-2.47,1.48-3.7-.74-2.72-3.33-2.59-4.44-5.18,2.59-1.85-1.73-2.59-1.48-4.44-6.05-4.32-14.93-3.46-19.25-10.36-.37,.37-.99,.74-.74,1.48l1.48,1.48,.74-.74,.73,.74c-.73,1.23-6.53,1.97-3.7,5.18-.49,1.36,.74,2.1,1.48,2.96l-.74,.74,2.96,1.48-.73,.74,1.48,1.47-.74,.74c3.46,.62,4.2,4.44,6.67,5.92l-.74,.74c-1.36-2.96-6.91-3.58-6.66-7.41-.49-1.23-2.47-.49-2.22-2.21l.74-.74-6.67-4.45c.99-.49,.74-1.35,.74-2.22-.99-2.1-2.47,.62-2.96,.74l.74-2.96-3.7-1.48,.74-.74c-4.56-1.12-6.17-10.36-11.85-8.15l2.96,3.7-.74,.74c4.07,1.73,7.03,6.41,8.88,10.36-.99,4.07-4.07-1.85-4.44,2.22,1.73,1.24,4.2,.61,5.93,1.48l-.74,.74,.74,.74h-2.22l.74-.74c-1.98-2.47-4.56,1.97-5.18-2.22l-1.48,2.22c-3.08,.61-4.32-5.8-7.4-2.96,3.58,4.07,5.06,4.2,8.14,7.4-.49,1.36-2.71-.25-3.7-1.48-3.7,3.7,3.7,6.42,2.22,11.11l2.22,2.22c-4.32,1.23-6.05-7.03-10.36-8.14,.62,2.72,.62,5.06,.74,8.14l-7.4-5.92c-.49,2.59,3.46,6.29,2.96,8.88l-5.92-5.18c-1.48,1.48,.37,4.08,2.22,4.44-.74,.86-1.97,1.6-1.48,2.96l1.48,1.48c-.49,.98-1.35,.74-2.22,.74-1.73-1.48-3.08-3.7-5.18-4.45-1.48,2.59,2.96,4.45,4.44,6.66-3.45,2.22-6.29-4.07-9.62-2.22,1.73,1.97,2.34,5.06,5.18,5.92-.99,1.23-1.98-.49-2.96,1.48-2.1-3.33-5.43-3.46-8.14-5.18-.74,4.2-4.44,1.73-6.67,2.96,1.97,3.33-1.36,6.66,3.7,8.14-6.17,2.96-11.35-2.47-16.29,1.48,1.11,3.33,2.96-.74,4.44,1.48,1.97,.25,3.33,2.34,5.18,2.96-3.09-.62-6.67-.13-10.37,.74-.37,.49-.98,.86-.74,1.48,.74,1.47,2.1-.25,2.96-.74,.87,.49,.74,1.35,.74,2.22-.74,.25-1.11-.25-1.48-.74l-1.48,1.48,1.48,1.48-10.36,1.48c3.21,1.48,8.64,2.96,9.62,4.44-1.11,.86-2.84,.25-3.7,1.48l1.48,1.48c-.37,.49-.74,.99-1.48,.74,.62-6.54-5.43-1.98-8.14-2.96-1.11-.25-1.48,.98-2.22,1.47,2.22,3.58,4.93-.61,8.14,.74l-3.7,2.22,.74,.74c-1.48,3.46-5.67-1.48-4.44,3.7l3.7,.74c-.99,.49-.74,1.35-.74,2.22l-5.18,.74,2.22,1.48c-3.46,2.1-7.16,1.97-11.1,3.7v2.22c-.74,.25-1.11-.25-1.48-.74-.49,.74-1.73,1.24-1.48,2.22,1.6,0,7.89,1.47,6.66-2.22-1.24,1.24,2.47,3.58,2.22,5.92-3.21,2.1-8.76-1.35-11.1,2.96l1.48,1.48c-1.36,2.22-5.67,1.73-6.66,4.44,3.7,.37,8.39-3.7,12.58-2.22l-2.96,1.47,2.22,1.48-2.96,2.96,.74,.74c-1.36,.49-2.34,2.1-3.7,2.22-.25-.99,.99-1.48,1.48-2.22-1.48-1.97-2.96,.62-4.44,.74-.12,3.21-3.7,4.32-5.92,5.18l.74,.74c.25,.37-2.47,.25-1.48,2.22,.49,1.36,1.97,.62,2.96,.74l2.96-2.96,1.48,1.48c.13-2.1,2.22-4.19,4.44-4.44,1.85-.13,4.2,.12,4.44,2.22-1.72,3.95-4.19-1.23-5.92,.74,.74,.99,1.97,1.61,1.48,2.96-.49,.99-1.36,.74-2.22,.74,.49-1.35-.74-1.98-1.48-2.96-.49,1.48-2.34,2.59,0,3.7-.86,1.11-2.22,.99-2.96,2.22l-1.48-1.48c-4.07,2.34-.49,6.29-3.7,9.62l4.44,2.96c-1.48,.61-2.6,1.85-3.7,3.08l-1.48-1.6c-2.96,5.18,4.81,4.44,5.93,8.26-.62,1.11-2.6,.49-2.22,2.22l3.7,.74c-2.1,1.24-1.97,3.46-2.96,5.18l2.96,.74-5.18,8.89c3.33,1.23,4.44-3.95,6.66-5.93,1.61,4.07-6.29,6.91-4.44,11.11l3.7-4.44c2.22,1.72-4.44,7.16,0,7.4-2.34,2.22,1.61,4.32-2.22,5.92,0,1.23-.37,4.44,1.48,5.93,3.21-2.34-.49-7.65,3.7-9.62l-.74-.74,.74-.74c1.35,1.48-2.84,4.32,.74,5.92-.25,3.7-2.72,7.41-.74,11.1l2.22,.74c-4.81,3.46,.37,8.39-4.44,11.84l.74,.74c-2.34,1.11-.49,2.22,0,3.7,4.94-.25-.61-4.81,3.7-6.67,1.36,.13,.49,2.47,.74,3.7l-2.96,2.96c1.35,.49,.49,1.97,.74,2.96l-2.22,2.22c2.34,1.73-1.24,.99-.74,2.96-1.36,2.47-.49,6.79-.74,8.88,6.91-.74-1.48-7.03,4.44-8.14-.74,.61,1.85,6.41-2.22,6.66l1.48,5.93,1.48-1.48c-.49-.37-.99-.74-.74-1.48,1.73,4.2,3.21,3.82-.74,8.14l-1.48-2.96-1.48,2.22c-1.85-3.58,2.22-6.41-1.48-9.62,.37,3.95-3.2,5.18-5.92,6.67,.25-.74-.37-1.11-.74-1.48-1.48,.25-2.34,1.72-3.7,2.21,2.59,.37,4.07,1.86,4.44,4.45l-2.22,1.48c1.98,.25,3.95,2.72,5.93,.74v2.22c-1.11,.12-2.22-1.73-2.96,0,.61,4.32,5.18,7.03,6.66,11.1l2.22-2.22,.74,3.7c1.85-.12,3.58-3.58,2.22-2.96,.49,.74,1.73,1.11,1.48,2.22-2.35,1.11-.49,2.22,0,3.7l.74,.74-2.22,2.96c.86,.74,1.6,1.97,2.96,1.48l.74-2.22c1.36,.49,.49,1.97,.74,2.96-1.36,0-1.97,1.48-2.96,2.22-.13,2.47,1.48-.12,2.22,1.48l-1.48,1.48-5.18-5.92,1.48-1.48c-4.32,.86-6.41-5.55-9.62-7.4-.25-6.17-5.68-8.76-8.14-14.07,.37-1.36-.74-2.1-1.48-2.96l.74-.74c-3.09-1.6-3.21-5.8-5.92-8.14l.74-.74c-.74-.99-2.34-1.73-2.22-2.96l.74-.74c-1.6-1.48-3.58,.24-5.18,.74v.74c-3.21-2.1-5.8-7.15-7.41-11.1,.37-.99,1.36-.74,2.22-.74,1.36,3.82,6.29,4.07,7.41,8.88,2.22-3.94-2.96-6.29-2.22-8.88l2.22-.74-2.22-7.4-2.22,1.48c2.34,1.36,1.6,3.21,.74,4.45-1.36-1.85-1.61-5.68,.74-7.41,0-.86-.25-1.73,.74-2.22,1.36,2.96,4.69,2.96,5.18,6.67,1.36-1.61,.49-3.95,.74-5.93-1.6-.99-3.7-.99-5.18-2.22,4.19-2.22-1.73-4.08-.74-6.67,.86-3.21,1.73-5.43-.74-8.14l1.48-1.48c-1.36-1.6-1.85-4.45-.74-6.66-.99-1.11-2.22-.99-2.96-2.22l-.74,7.4-.74-.74c-.61,.74-1.85,1.11-1.48,2.22,5.93-1.11,.74,5.43,4.44,8.14-1.85,1.23-2.96-.37-4.44,2.22l1.48,1.48c-.61,.74-1.85,1.11-1.48,2.22l.74,.74c-.74,.49-1.23,1.73-2.22,1.48l-.74-.74,2.22-1.48c-.61-.74-1.85-1.24-1.48-2.22l1.48-1.48c-.49-.49-.86-.99-1.48-.74l-1.47,1.48c1.6-2.59-3.46-5.92,0-8.14l-2.22-2.22c2.72-1.6,.86-4.94,1.48-7.4-.87-.87-1.98-1.61-1.48-2.96l4.44-2.22-3.7-1.48c.12-.5,2.71-1.98,.74-2.96h-.74c4.19-3.33-1.11-12.46,2.96-18.51-.12-.86,.13-1.85-.74-2.22l-2.96,2.96,.74,.74-.74,.74-.74-.74,1.48-1.48c-.49-.49-.99-.86-.74-1.48l2.96-.74c-4.44-6.41,.74-15.67,2.22-23.07,3.46-3.58,3.46-9.25,8.15-11.84l.73,2.96c.37-.37,.74-.99,1.48-.74,.37,.49,.99,.86,.74,1.48-1.48,.49-2.1-.62-2.96-1.48-.49,2.22-2.47,4.81-1.48,6.66,1.48-1.23,2.59-3.2,4.44-3.7,.74,3.58,4.69,6.79,2.96,10.36-2.96,.61-3.82,1.35-6.66,2.22l4.44,1.48c-1.48,3.34-5.67,2.22-8.14,4.44,.49,1.35,1.97,.62,2.96,.74,.62,3.7-1.73,.12-2.96,2.22l2.22,2.22-1.48,1.6c4.07,1.11,5.06-5.68,6.66-7.53l2.22-2.22,.74,.74c-1.6,.99-1.48,2.47-2.22,3.7,1.11,1.48,2.96-2.22,4.44,0l-4.44,4.44c-.12-.74,.13-1.73-.74-2.22-1.24,5.92-10.73,4.32-6.66,10.48l2.22-4.44c.37,2.83-.37,5.3-2.22,7.4l.74,.74-1.48,1.48c1.73,1.6,0,3.58-.74,5.18l.74,8.88c4.07-4.93,.37-11.47,5.18-15.54l-2.22-.74c2.96-1.85,5.67-2.1,6.66-5.93,.99-2.59,3.21-3.7,5.93-5.3l.73,.86c3.95-1.35,2.72-4.2,2.96-6.79-1.35-3.71-4.81-.86-7.4-.74l2.96-2.22-4.44-1.48c1.36-.49,2.47-1.72,3.7-2.96,1.11-8.64-7.77-12.22-6.67-19.99-5.43-8.89-1.98-16.78-2.96-26.65-.62-6.54,6.53-15.92,2.96-20.73,.99-.86,.99-2.22,2.22-2.96l3.7-.74-.74-.74c1.85-1.6,4.32-2.22,6.66-2.96-.99-1.24-.86-2.72,.74-3.7,.62,2.22,3.08,3.95,5.19,2.22,2.46-.74,6.05-4.07,7.4,0,3.46-1.85,8.76,.74,11.84-2.22,2.34-.61,5.06-.12,8.14,.74v-2.96c-4.07-.25-13.2,.62-17.76-.74l-.74-.74c2.1-3.08,6.05-1.36,8.14-4.44-3.82,.49-7.65-1.48-11.1,2.22l-.74,2.22v-.74c-3.7-1.85-5.31,2.84-7.4,5.18-1.36-.49-.49-1.98-.74-2.96,1.6-.12,3.21-2.47,1.48-3.7l-.74-.74c10.61-1.85,22.21-8.15,33.31-8.89,.74-.98,3.08-.98,2.22-2.96,2.47,.74,7.03-1.85,7.41,2.22l2.96-3.7c.49,.86,1.35,.74,2.22,.74l.74-.74c-1.6-3.33-6.17,.49-7.4-3.7-3.58,1.98-6.17-2.71-9.62,1.48-1.98,.62-2.96-.99-4.44-1.48,3.82-3.2,7.65,.37,11.1-3.7l-3.7-2.22c5.43-.25,8.76-4.69,14.8-.74l.74-.74c-2.47-5.18-8.76-4.2-12.59-7.4,4.44-2.22,10-.74,14.07-2.22l-5.92-3.7c5.55,.74,12.83-1.85,18.5,2.22l.74-.74c2.22,1.6,3.58,2.96,5.92,2.22l1.48,1.48,1.48-1.48c-1.85-3.58-7.53-.99-7.4-5.92-.87-1.24-2.6-.62-3.7-1.48v-1.47c1.6,1.72,3.7,0,5.18-.74-1.6-.87-3.2-1.36-4.44-2.96,5.43-.61,9.5-.37,13.33,5.18l-2.22,1.48c3.82,.13,4.32,5.8,8.14,3.7-2.34-3.08-.49-6.54-5.18-8.14l2.22-1.48c-4.93-4.56-11.6-7.89-19.25-7.4-6.17,1.35-14.31,.49-19.99,.74,1.85-3.21,8.27,.25,11.1-2.96,2.72,3.45,6.41-3.95,9.62,.74,1.73-1.61,3.95-1.73,5.93-.74,2.46,3.83,5.92-1.23,8.88,1.48,2.47,.99,4.93,4.19,7.4,2.96l-2.22-2.22c1.48-1.24,6.05-.99,8.14,.74,1.36,1.23,2.35,2.84,4.44,2.22l10.36,10.36-.74,.74c3.95,1.11,4.2,6.17,8.14,2.22l-2.22-2.22,.74-.74c-1.36-2.71-6.79-3.7-2.96-6.66,4.93-.99-1.23,3.82,3.7,2.96l-2.22,1.48c.49,1.36,1.97,.49,2.96,.74,1.48,3.95,8.64,5.93,6.67,11.1,.86,1.36,2.47,.5,3.7,.74l1.48-1.48c-3.82-7.16-10.73-13.08-14.06-19.99-1.36-1.72-2.96-2.71-5.18-2.22l-.74,.74,2.96,3.7-2.22,2.22c-.86-3.82-4.19-4.69-5.92-8.14l-1.48,2.22-.74-5.18c-3.7,1.24-3.08-3.33-5.93-4.45l-11.1-2.21c3.95-2.35,8.39-1.36,13.33-3.7,.13,1.24-1.48,1.97-2.22,2.96,.87,1.35,2.22,1.6,3.7,1.48,2.34-5.3,8.02,1.97,11.1-1.48-3.46-2.47-8.64-3.82-10.36-7.41,8.64,.87,15.42-4.93,24.43-.74,3.33,1.86,7.89,2.6,11.1,2.22h0Zm82.29,4.44c-.49,.37-.87,.99-1.48,.74l-1.48-1.48,.74-.74-2.96-2.22,.74-.74,4.44,4.44h0Zm-83.77,3.7c-6.67,0-15.67-2.22-22.21-6.67l-5.92-.74c10.98-1.48,19.12,4.07,28.13,7.41h0Zm56.38-5.18l.74,.74h-5.18v-1.48c1.48,.25,2.96,2.71,4.44,.74h0Zm-121.52,2.96c-3.46,3.82-9.5,3.58-13.33,4.44,4.07-2.34,9.26-4.44,13.33-4.44h0Zm90.31,2.22l-11.1-.74c3.7-2.47,7.77-2.35,11.1,.74h0Zm-42.94,1.47l-5.92-2.96,5.18,2.21,.73,.74h0Zm86.74,2.96l1.48-1.48c5.18,3.46,10.36,9.62,14.8,14.81l.74-.74c.49,.74,1.73,1.11,1.48,2.22l-.74,.74c1.97,.49,3.46,2.1,5.93,1.47,1.35-.86-.25-2.1-.74-2.96h-1.48l1.48-1.48c-.74-1.48-3.33,0-2.96-2.22l.74-.74c-.49-.49-.86-.99-1.48-.74-.25-.74,.25-1.11,.74-1.48h1.48c.25,.62-.37,.99-.74,1.48,.37,.87,1.36,.62,2.22,.74-.37,3.08,3.58,5.68,1.48,7.4l-2.22,1.48c1.23,.49,1.97,2.1,3.7,1.48-3.83,3.82,5.05,2.47,1.48,5.93-3.82-1.98-2.46-5.06-6.66-5.93l.74-.74c-5.06,.12-8.39-5.92-13.33-5.92,3.58,3.94,8.51,8.14,13.33,11.1-2.1,5.31,7.4,7.77,5.18,14.06l1.48,1.48c-1.97,1.48-3.94-1.48-5.92-2.22-.62-2.22-3.7-4.57-5.93-5.93-1.35,3.33,4.08,6.66,2.22,10.36,1.48,1.48,1.48,4.81,4.44,4.44-1.61,2.47-3.33-1.85-4.44,1.48,2.22,.62,3.08,1.6,4.44,2.96-1.85-.37-3.33,1.85-4.44-.74-1.98,1.97,.49,3.95,.74,5.93-.49,.37-.86,.99-1.48,.74-3.2-2.96-3.08-10.61-2.96-11.84-.13,1.24,1.48,1.98,2.22,2.96,.99-.87,.99-2.22,2.22-2.96-4.68-2.47-6.05-9.87-7.4-14.07-2.84-.12-3.46-3.7-5.93-5.18,.99-1.98,4.07,.37,4.44,2.21,.37,.87,1.35,.74,2.22,.74,.25,.74-.37,1.11-.74,1.48,.37,.37,.74,.99,1.48,.74,1.72-1.6,0-3.7-.74-5.18-3.95-2.72-7.28-7.04-11.84-8.15-.25-.74,.25-1.11,.74-1.48-2.72-4.69-9.5-1.85-11.85-6.66-1.85-.49-3.33,.62-3.7,2.22-.99-1.6-.12-4.2,.74-5.92,3.21,4.93,7.89-.37,11.84,2.96l3.7-2.22c-5.55-.61-2.35-8.88-7.41-7.4-.12-.86,.13-1.73-.74-2.22h-2.22c1.85-3.2,6.54,.87,8.14,2.96h0Zm50.34-2.22c-1.35,2.47-5.18,1.36-6.66,1.48,0-.86-.25-1.73,.74-2.22,.86,.74,1.6,1.98,2.96,1.48,1.23-.99,1.36-1.73,.74-2.96l2.22,2.22h0Zm9.62,0c.74,1.36,2.47,.49,3.7,.74-1.23,.25-3.7,2.34-4.44,3.7,.37,.37,.74,.99,1.48,.74l1.48-1.48c.37,2.47-.37,6.41-2.22,8.88,2.72-.37,6.91,7.03,9.62,2.22l-3.7-.74c2.22-2.1,4.93-5.3,8.14-2.96,1.11-3.33,2.96,.74,4.44-1.48l-2.22-2.22,2.22-2.22c-4.08-2.34-6.42,3.83-11.1,2.22l-3.7,3.7c-.86-2.59,2.47-5.18,4.44-7.4l2.96,1.48c.62-1.61,2.1-3.95,4.44-2.96,5.92-1.85,.12,6.05,5.92,2.22l.74,.74-2.22,2.22c2.1,1.23,3.21,1.97,5.18,2.22-1.48,.37-2.72,1.85-2.22,3.7,4.32-.25,6.67-2.96,11.84-2.96,1.98-.61,5.43-2.22,6.66,0-2.34,.74-6.29,4.32-10.36,1.48-1.6,2.22-5.31,.99-5.92,4.44l3.7,2.96c2.59-2.96,7.15-3.58,10.36-2.96l-3.7,2.22,.74,.74-5.93,5.93c3.46,1.98,7.65-6.91,10.37-.74l1.48-1.48-1.48-1.48,.73-.74,.74,2.22c1.36-1.85,4.32,.62,5.19-2.22l-4.44-.74c12.59-2.96,26.16-1.48,37.76,4.44,1.85-2.72,5.06,1.48,6.66,2.22-4.81-1.48-13.08,.99-17.76-2.96-10.36-.49-21.71-3.33-28.87,5.92-2.84-.13-4.08,3.7-6.67,4.44,2.84,2.72,4.81-5.3,7.4-.74l4.44-2.22c1.36,2.6-1.11,4.69-4.44,5.93-4.81,1.11-9.99,3.21-12.58,8.14l-1.48-2.22c.25,2.47-3.33,3.33-2.96,5.92,2.34,1.24,4.69-1.85,6.66-3.7l.74,.74-5.18,5.92,.74,.74c3.82-2.84,11.47-7.15,11.1-9.62,1.24,1.48,5.06-.74,3.7-2.22,.74,.25,1.11-.37,1.48-.73l.74,2.22c6.42-5.06,12.71-3.7,19.25-8.14,4.32,.62,10.49-.99,14.07-2.22l1.48,2.22c.49-.99,1.48-.74,2.22-.74l.74,.74-2.96,2.22c2.59,1.98,6.29,2.34,8.88,2.22v1.48c1.61,1.97,3.58-1.48,5.18,.73,.61,.62-.62,3.83,2.22,2.96,.87-.74-.25-3.08,2.22-2.22l1.48,1.48-3.7,.74c8.39,5.8,16.04,11.85,22.21,18.51l-.74,.73-2.22-2.22-.74,.74c-10.12-11.23-24.68-22.46-39.98-19.99-5.55,2.22-9.13,4.45-14.8,6.67,4.19,.5,6.05,2.1,9.62,1.48-.25,.74,.37,1.11,.74,1.48,4.19-2.59,9.99-1.24,14.07-3.7,1.23,1.11,2.96,3.46,4.44,1.48l-.74,2.22c5.06,2.34,11.72,5.18,17.03,8.88-.25,1.11,.99,1.48,1.48,2.22l-.74,.73-.74-2.22-9.63-4.44c-1.85,1.48-1.35,4.56,.74,4.44l-5.92,2.96c-.99-.86-.99-2.22-2.22-2.96l-3.7,1.48-1.48-3.7c-4.44,.99-9.13,4.07-13.33,3.7,1.23,1.72-1.85,2.59-3.7,2.22l-.74,.74c.49,.37,.87,.99,1.48,.74,.25,.74-.25,1.11-.74,1.48-2.84-.49-3.82-2.96-6.66-.74l-1.48,1.48,2.22,2.22c-.87,.99-2.1,.99-2.96,2.22,.86,1.35,2.47,.49,3.7,.73-.25,.74,.37,1.12,.74,1.48l2.96-2.96c2.96,3.33,4.69-4.94,7.41,0,10.73,.25,19.37,1.97,28.87,5.92,1.48-.25,3.46,.62,4.44-.74-4.44-1.11-8.27-3.46-11.84-6.66,3.33-5.18,7.4,.86,11.1,2.22,1.23,.61,.61,2.59,2.22,2.22l.74-.74c-.74,3.7,7.65,4.56,5.18,8.89,3.82,.49,3.21,5.92,7.4,6.66v3.7c-.74,.12-1.73-.12-2.22,.74,.13,2.1,2.47,1.23,0,2.96,6.79,3.82,3.7,12.22,10.49,15.55l-5.31,.74c.25,4.07,6.79,.99,5.31,5.92,.86,1.48,3.46,2.35,2.96,4.44l-1.48,1.48c3.33,2.59,4.56,5.3,2.96,9.62l-.74,.74,2.96,1.48c-3.33,6.29,3.34,13.81,0,19.99,.37,1.48,2.72,3.33,0,4.57,3.09,4.93-.25,9.74,2.96,14.8,4.44,9.25-11.84,13.82-.74,22.21,3.46,4.94,.99,9.5,3.7,14.81-.74-.24-1.11,.25-1.48,.74-3.7-4.32-2.59-11.23-5.93-16.29-2.71-2.84-6.04-.49-9,0,1.23,1.12,2.96,3.34,4.56,1.48l-1.6,3.7c3.94,.74,2.1,6.41,1.6,10.36,.49,2.59-4.2,4.07-1.6,6.66l9-5.92,5.93,4.44c.12,8.51-5.55,17.4-3.7,26.65-2.84,1.6-2.72,2.47-1.48,5.18l1.48,1.47-1.48,1.48c1.97,4.2-.62,8.39-.74,12.58,2.72,2.59-2.47,7.4,1.48,10.36-1.23,4.56-1.85,7.77-1.48,12.58,1.23,.74,.49,2.47,.74,3.7l-1.48,1.47c3.46,1.48-.61,3.58,.74,5.93-5.06,1.73,.49,5.42-2.22,8.14-3.58,2.22-1.85,3.82-3.7,6.67-1.36-.49-.62-1.98-.74-2.96l2.22-1.48-3.7-2.22,.74-.74-2.34-2.96c.74-.49,1.23-1.72,2.34-1.48l.74,2.22c2.59,.25,.61-2.71,2.22-3.7l-.74-.74,2.96-2.22c-5.55-.37-2.46-5.06-2.22-8.14l1.48-1.48c-.98-.99-2.22-.99-2.96-2.22-1.61,4.32-2.34,9.62-7.53,11.85l2.96,.74c-.13,2.59-2.35,2.47-3.7,4.45,4.32,.49,1.36,4.81,.74,6.66-.37,3.7,3.7,5.55,2.22,9.62-.87,1.24-2.35-.61-3.7,.74,.62,2.71-1.23,5.43,1.48,8.14-2.96-1.24-2.59,2.47-3.7,4.44,.62,1.85-.61,3.33-2.22,3.7-.49,3.21-5.19,8.27,.73,10.36-.37,2.1-1.23,4.69-3.7,5.18l-.74-.74c-1.61,2.59-4.2,6.04-7.4,6.66l-4.44-1.48c.12,6.78-5.93,12.83-2.22,19.25-5.92,0-.61,5.31-2.22,7.53-11.6,11.72-3.94,28.74-15.54,40.71-3.7,9.62,8.39,13.45,12.59,19.99l10.36,8.88-.74,.74c1.11,1.73,4.57-.86,2.22,2.22,3.2-.13,3.2,2.96,5.92,3.7l-.74,.74c4.32-.74,1.73,5.18,5.93,4.44l-.74,.74,2.96,.74-2.22,1.48,2.22,2.22-.74,.74,4.44,3.7c-2.84,2.09-8.27,4.32-9.62,8.88,.86,1.36,2.47,.49,3.7,.74-.87,1.98,1.48,2.1,2.22,2.96l-4.44,4.44c.61,.74,1.85,1.11,1.48,2.22-.37,.99-1.36,.74-2.22,.74,0-1.73-1.85-3.82,.74-5.18l-2.22-2.22c-1.98,1.48-2.1,2.59-.74,4.44,.25,.74-.25,1.11-.74,1.48-.74-.98-2.22-1.6-2.22-2.96l.74-.74c-1.97-.49-3.7-1.98-5.92-2.22-.49,1.98,.99,4.94,1.48,7.4,1.11-.37,2.22-.49,2.96-1.48,2.72,1.36,3.21,3.21,5.93,4.44l-3.7,2.96,.74,.74c-2.34,.25-1.11,2.34-1.48,3.7,2.1,.25,4.44-.61,5.93,.74-2.47,2.1-7.28-1.35-8.89,2.96,2.59,4.94,5.93-3.58,7.41,2.22l1.48-1.48c.99,.49,.74,1.36,.74,2.22-1.73-1.36-5.55,2.84-6.67-.74-.37,.37-.74,.99-1.48,.74l-1.48-1.48c-.74,.86-1.85,1.6-1.48,2.96,2.34-.13,6.29,2.46,8.88,1.48l-4.44,2.22c.49,.49,.87,.99,1.48,.74,.25,.74-.25,1.11-.74,1.48,1.36-2.22-3.08-2.71-3.7-4.44-3.7,2.1,.99,4.56,1.48,5.92-1.24-1.36-3.45-.49-5.18-.74,.61,1.48-1.23,2.96,1.48,4.45,.49-.37,.86-.99,1.48-.74l-1.48,1.48c-.37-.37-.74-.98-1.48-.74l-.74,.74,1.48,1.48-.74,.74,2.22,1.48c-1.61,2.84-4.81,6.42-8.89,8.14l3.7,.74c-1.23,.99,.49,1.98-1.48,2.96,10.86,.61,20.97-4.69,31.96-5.92,4.07-1.36,4.44-6.78,8.88-7.41,.49,6.05,5.06,1.98,8.14,1.48,5.31-.12,10.86-3.08,15.55,.74,.49,1.85-.74,3.33-2.22,3.7-7.65-3.7-15.79,.37-22.95,2.22-7.15,11.84-12.83,24.31-17.89,37.01,7.53,.49,12.22-8.51,17.15-13.33,.87-3.7,4.2-7.4,2.96-11.1-3.7,0-4.94,2.84-7.4,5.18-2.1-1.85,1.6-3.08,1.48-5.18,2.72-1.24,4.44-4.81,8.15-3.7,6.05,1.23,3.33,8.26,2.96,11.84-4.93,6.91-10.61,15.42-17.89,19.25,25.91,14.06,59.71,23.07,72.66,54.16-.49,.74-1.73,1.12-1.48,2.22,2.47,2.71-1.48,6.41-2.22,9.62-26.28,30.23-68.85,27.15-105.98,34.05-48.98,8.63-100.8,6.54-151.75,11.1-10.98-1.35-25.91,.12-35.65-4.45-1.11-1.23-3.33-2.83-1.48-4.44,11.6-7.77,26.16-3.33,38.62-6.67,6.17,.74,13.69-1.85,18.51,2.22l-2.96,2.96c-11.6,.99-24.18-2.47-34.79,2.96,20.97,4.44,43.43,.86,65.14,1.48,30.35-1.97,60.7-1.73,91.05-5.93,36.15-8.64,77.11-5.42,107.46-28.13,2.47-7.16,6.05-16.41,1.48-23.69-2.6-8.02-10.49-17.4-19.25-19.99-15.91-9.26-30.22-24.68-49.71-23.07-2.84,4.94-3.09,11.48-8.15,14.93l-5.18-.73c-1.97-5.3,10.61-11.6,.74-15.67,.12-2.72,1.85-6.29,5.18-5.93,6.05,1.35,3.58-6.66,7.41-8.14-.62-5.93,7.27-9.13,5.18-14.81-5.55,5.43-12.59,7.53-16.28,14.81l-27.39,26.65c-1.98,.13-3.46-1.48-5.18-2.22,3.2-2.47,6.17-6.42,5.92-11.1l-.74-.74c-.74,5.06-7.03,5.92-7.4,11.1-3.46-.25-2.34,3.33-2.22,4.44,.74-.12,1.11,.37,1.48,.87-2.47,.86-6.42,4.19-9.62,2.96-1.85,.62-3.7,3.7-5.93,1.48l-2.96-5.3c-4.32,3.58-8.39,7.89-14.07,8.27-4.07-1.85-1.48-7.4-2.22-9.75-7.77,5.8-13.2,19.12-22.95,13.45,.99-2.72-1.48-3.95-2.22-5.93l1.48-1.48,.74,.74c3.58-13.69,15.79-23.81,23.69-35.65-.49-.86-1.36-.61-2.22-.74l-23.69,25.17c.37,1.11,.49,2.22,1.48,2.96-1.35,2.22-2.22-.98-3.7-.73-9.5,7.65-14.31,18.38-25.91,23.81-1.73-.13-3.58,.37-4.44-1.48-.25-1.73,.62-3.95-.73-5.18-5.8,5.68-13.08,10.98-20.73,14.07v1.48c-9.38-.49-.98-8.39-1.48-12.59,.49-.99,2.1-2.22,.74-2.96-1.98,1.73-6.05,3.33-7.41,6.66-.12,3.46,2.96-.99,2.22,2.96h-1.48c0-2.59-1.48,.12-2.22-1.48-6.17,1.11-10.12,7.65-15.54,10.36-4.81,2.22-10.74,8.14-15.55,3.7,3.82-16.16,14.56-30.22,25.17-43.05h-4.44c-12.83,9.87-22.46,22.08-34.91,32.69,.99,2.47-1.97,1.73-2.96,2.96-7.15,9.62-20.97,12.95-25.16,25.17-2.47,1.6-4.32,6.41-6.67,5.18,3.34-6.79,14.81-12.21,11.1-19.99,4.56-21.22,23.69-37.01,34.92-54.9-12.58-6.91-9.01,12.71-16.41,17.89-19.62,25.29-42.93,46.51-69.59,59.96-1.48-.25-2.84,.12-3.7,1.48-2.84-2.83-9.25-.13-9.62-5.92-3.33-6.54,.13-14.68,0-20.73-7.89,6.05-10.48,15.55-13.32,24.43-2.59,1.23-.74,5.68-4.44,5.18-1.35-14.81,9.75-24.43,17.02-35.53-.49-.99-1.35-.74-2.22-.74,1.85-2.84,2.1-5.92,5.18-6.66l-1.48,1.48,1.48,1.48c15.17-13.32,25.66-33.07,44.42-42.31,1.97-.62,3.82-3.7,5.92-1.48-7.03,4.68-15.42,10.73-21.47,17.76l.74,.87c12.71-9.01,27.02-14.07,39.98-22.33h-.74v-1.48h.74v.74c6.78,1.85,16.16-7.4,21.47,2.22,4.32-1.97,9.5-4.93,12.71-5.92,2.84-.49,3.7-1.23,6.66-2.22,.87-1.48,1.11-3.21,2.96-4.44,.37,.49,.86,.87,.74,1.48l-1.48,1.48c2.22,.74,4.94,1.85,5.92,4.45,7.03,1.11,14.56-2.72,19.25-8.15-.87-.86-1.97-1.48-1.48-2.96l2.22,2.22c2.84-2.22,.12-9.62,5.18-8.14,2.22-1.23,1.36-7.28,5.18-4.44l3.7-2.96c-.86-.99-2.22-.99-2.96-2.22l-1.48,1.48-.74-.74c.49-.74,1.73-1.11,1.48-2.22-1.11-1.35-2.96-.49-4.44-.74-.12-3.2,4.44,.25,4.44-2.96,1.35-1.23,4.32-.24,4.44-2.96-1.85-2.59-3.7,3.45-5.18-.74,3.58-.49,4.19-.99,8.14-2.96,.86-4.32,.99-6.41,5.92-9.62-.86-.74,.25-3.08-2.22-2.22l-.74-.74c2.22-4.93,4.44,3.46,6.66-1.48-1.6-1.72-3.21,.87-3.7-2.22l2.22-2.96-5.92-.74-5.18,4.45c-7.89,1.72-4.07-13.95-11.1-5.93l2.96,2.96c.37-.37,.74-.99,1.48-.74-1.6,3.08-4.56,0-6.66,2.96-1.61-.74-3.09-1.98-5.18-1.48-.49,.37-.99,.86-.74,1.48-2.22-3.71-5.55,0-7.4-2.22-3.33,1.11-10.36,4.44-14.07,0-2.22,1.97-4.44-.49-6.66-.74-.62,2.59,0,5.8-4.44,4.44l-1.48-1.48-5.31,5.18c1.36-3.7-5.55-7.77-1.48-11.85-5.8-7.03,11.1-6.79,1.48-13.32l.87-.74,3.7,5.18,4.44-2.22c-.87-.86-1.97-1.6-1.48-2.96,1.85,3.58,4.44,1.85,6.66,2.22l-.74-2.22c.62-.25,.99,.37,1.48,.74-.25,4.81-7.89,2.96-10.36,4.44,.74,1.24,.62,2.84,2.22,3.7l2.96-.74-.74-2.22,3.7,4.44,1.48-1.48,.74,.74-1.48,1.48,.74,.74-2.96,2.96,1.48,1.48,1.48-1.48,1.48,2.22c-2.84-8.63,6.79-1.23,9.62-6.66-.74-.49-1.23-1.73-2.22-1.48,.86-.74,4.07-1.73,5.18-1.48,.25,1.11-.99,1.48-1.48,2.22,2.22,3.45,3.33-1.24,5.93-.74,1.73,.86,1.97,4.07-.74,4.44,4.32,2.84,2.71-3.7,5.18-5.18l-.74-.74h3.7c.86,.99-.25,2.84-1.48,3.7,1.35,.49,2.47,2.34,3.7,0,.25-1.48-.62-3.46,.74-4.44h2.22c-.25,.74,.24,1.11,.73,1.48l-2.96,2.22c1.24,.25,2.46,2.71,3.7,.74l2.22,2.22c1.85-2.34-3.94-5.18,0-7.4-1.24-2.59-5.8-.74-2.96-4.44l-4.44-2.22c.61,1.48,6.41-3.09,5.18,1.48,2.47,.98,1.73-2.1,2.96-2.96-1.11-1.73-4.44-4.44-1.48-5.93-3.33,2.35-5.92-5.06-8.88-1.48,.37,.37,.99,.74,.74,1.48l-.74,.74c.37-4.44-4.69-1.98-6.66-3.7-4.2,.62-9.5-.99-14.07-1.48,1.48-2.1,6.54,1.36,5.92-2.96,4.94-.12,12.83,.86,16.29-3.7,5.8,2.59,2.59-6.54,6.66-4.44,.49-.74,1.73-1.11,1.48-2.22,1.36-.49,2.1,.74,2.96,1.48,.49-2.47,6.79-5.31,1.48-7.4-5.8-4.94-3.82,6.41-9.62,1.47-2.35-3.58-5.93,.62-8.15-.74-.49,.37-.98,.74-.74,1.48-1.23-.99-3.58-.86-3.7-2.96l2.96,1.48c1.85-2.47-1.36-2.71-2.96-5.18-6.29,2.83-9.87-5.43-14.81-1.48-5.8,1.11-9.74-.12-11.1,6.66l.74,.74-2.96,2.96,.74,.74c-.86,1.73-3.94-.49-3.82,2.22-5.67,1.73,.62-4.69-5.18-2.96,.61-2.22,1.73-4.32,3.7-5.92,2.84,1.35,4.08-1.98,4.56-4.44-1.11-.74-2.96-1.35-3.08-2.96l.87-.74,2.22,2.22,2.22-2.22c.74,.49,1.11,1.73,2.22,1.48l1.48-1.48c2.96,2.47,5.43,1.61,8.88,.74l2.22-2.22-1.48-1.48c4.56,1.6,2.72-6.05,7.4-6.66-.6-1.79,.84-4.81,2.48-8.29,2.72-5.79,5.98-12.86,1.22-17.61,4.42-3.31,.21-8.19-.22-14.57-.37-5.39-1.03-10.86-4.96-12.82,.37-1.48,2.35-2.59,0-3.7,3.93-13.74-7.24-30.42-10.36-43.8,.74,.13,1.73-.12,2.22,.74-1.73-5.55,3.46-10.36-1.48-15.54,2.22-1.36-1.11-2.22-.74-3.7-5.43-3.21-11.47-9.01-14.19-14.07l.87-.74c.86,.87,1.48,1.97,2.96,1.48,2.47-4.56,3.34-5.3,6.67-9.62-3.46-1.35,.49-3.46,.74-5.18,.37,.37,.74,.98,1.48,.73v-2.95c3.2,1.35,1.35,4.68,2.96,6.66,3.33,1.85,2.47,5.43,3.7,8.14l-.74,.74,2.96,3.7c8.39-6.17-.25-15.3,7.4-21.47-2.72-1.23-2.47-3.33-4.44-5.18,1.48-.73,0-3.2,2.22-2.96l.74,.74c.87-.49,.62-1.36,.74-2.22h2.22c-4.56,3.95,1.73,7.03,4.44,8.88,4.69-.37,5.8-4.57,5.18-5.92,4.2,2.22-.37-2.22,2.22-3.7,.74,.49,1.11,1.73,2.22,1.48-.25-5.31,5.92-2.22,9.62-5.18l1.48,2.22c.86-.49,.61-1.36,.74-2.22,3.08,.99,5.55-1.24,6.66-3.7l.74,.74c3.33-1.23,0-3.46,0-5.18l-1.48-1.48c5.67-2.72-1.73-6.41,.74-9.62,.74,1.11,1.35,2.84,2.96,2.96l.74-.74c-4.69-2.1,.37-8.39-5.93-5.93-.86,0-1.73,.13-2.22-.74l3.7-2.95c-.74-.99-2.34-1.73-2.22-2.96,2.1-.86,3.7,3.7,5.18,0,.86-5.19-5.31,.37-2.96-4.44l1.48,1.48,.74-2.96,3.7,2.96,.74-.74c-1.36-.86-1.73-2.22-1.48-3.7l.74-.74,1.48,2.22,3.7-2.22c-.13-2.1-1.36-3.82-2.96-5.18-1.11-.12-2.22,1.73-2.96,0-.25-1.11,.99-1.48,1.48-2.22-1.73-2.46-3.45,1.73-5.18-.74-.99,.86,.12,2.71,1.48,3.7-3.09-.86-3.09-4.44-6.67-3.7,0,2.34,2.1-5.8-2.96-2.96-.87,.86-1.97,1.6-1.48,2.96l2.22,2.22-.74,.74c-2.72-4.69-7.03,.13-10.36,.74-2.72-3.2-4.44,2.83-6.67,.74l2.22-1.48c-.87-.99-3.08-.99-2.22-2.96l.74-.74c-.74-.49-1.24-1.73-2.22-1.48l-.74,.74-1.48-2.22-.73,.74v-3.7c2.1-1.35,2.59,3.46,4.44,.74,.74,2.47,2.59,6.29,5.93,3.7l1.48-1.48c-1.97-1.6-2.59-3.46-.73-5.18,.73-.49,1.11-1.72,2.22-1.48l2.96,2.96c.86-.49,.61-1.35,.74-2.22l-2.22-2.22,.74-.74c1.23,.74,1.73,3.08,3.7,2.22l1.48-1.48c.25,.61-.37,.99-.74,1.48,3.58,.25,5.31,.25,7.4-3.7l-.74-.74c3.82-.13,1.23-6.05,5.93-5.93l-1.48-1.47c-.49,.86-1.36,.61-2.22,.74l-.74-.74c1.85-1.48,5.06-3.83,6.66,0,.62,.25,.99-.37,1.48-.74,1.23-2.72-2.1-3.34-2.96-2.96,.74-.86,1.98-1.6,1.48-2.96l-.74-.74-2.96,3.7-.74-.74,1.48-1.48c-3.34,.62-2.72-4.32-5.93-3.71l.74-.73c-3.08-.13-.99-3.58-3.7-4.44,.87-.49,.62-1.48,.74-2.22-.25,.62,.25,.99,.74,1.48l2.22-2.96c-.86-.86-1.98-1.6-1.48-2.96l2.96,2.96-2.96,3.7c1.23,2.22,4.07,2.84,5.93,1.48,5.31-4.81-3.58-5.3-3.7-9.62,2.84,2.59,3.46-1.48,5.18-2.22l2.22,2.96-4.44,.74c.49,.86,1.36,.62,2.22,.74-1.73,1.35,.12,2.46,0,3.7,.86-.12,1.72,.13,2.22-.74-.74-2.96,4.07-3.45,5.18-5.18l-1.48,1.48c1.98,.74,3.46,4.81,5.92,2.22,0-1.35-1.48-2.1-2.22-2.96,1.35-.62,.49-2.1,.74-2.96-1.97-1.6-3.83,1.48-5.93,1.48,.13-2.1,2.47-2.1,3.7-2.96-.49-.99-1.36-.74-2.22-.74,.49-3.58-2.72-4.32-2.22-5.18,1.23,.74,1.73,2.96,3.7,2.22l1.48-1.48-2.22-2.22,.74-.74,2.22,2.96c.74-.62,1.11-1.85,2.22-1.48-.25,2.46,1.36,4.81,1.48,6.66,5.8-3.33,3.7,5.8,8.15,6.66l-.74,.74c-.87-.86-1.61-1.97-2.96-1.48l-.74,.74,2.96,2.96-2.22,1.48c.99,.86,.99,2.1,2.22,2.96l2.22-1.48c-.86,1.97-.73,2.59-.73,5.18l3.7,2.96c1.48-2.84,2.72-1.24,5.18-1.48,.86,.37,.74,1.36,.74,2.22-.87,1.11-3.95,.37-2.96,2.96,3.08,2.47,5.06,.74,8.14,1.48-.74,1.48-3.21,0-2.96,2.21,.87,1.36,2.22,1.61,3.7,1.48l1.48-2.22,2.22,2.22,2.22-2.96c-1.72-1.48-3.2-3.09-.73-5.18-.74-1.35-2.47-.49-3.7-.74-.86-3.21,4.94-5.43,.74-8.14l.74-.74-2.96-2.96c.13,5.06-4.2,.99-5.92,2.22,2.22,0,4.07-2.59,2.22-4.44,1.36-.98,2.96,1.61,5.18,.74-1.23-2.22,2.22-4.19,2.22-6.66-3.33-1.85,0-4.44,0-6.66-.87-1.11-2.22-.99-2.96-2.22l-2.22,2.96-1.48-1.48c-1.48-6.67-1.35-14.93-2.22-20.85l1.48,1.48c-1.35-2.59,1.97-4.45,4.44-5.18l2.96,5.18,.74-.74c-.49,2.22,1.98,3.08,3.7,5.18,.49-.87,1.36-.62,2.22-.74l-2.22,2.34h3.7c-2.34,1.11-.49,2.22,0,3.7h3.7l-.74,2.22c1.11,.87,2.96-.99,4.44-1.48,0,1.61,.37,3.46-1.48,4.44h2.96c-3.08,4.94,5.93,2.47,4.44,7.4-.49-1.35-1.97-.61-2.96-.74-.99,1.36,1.48,3.95,2.96,2.96-.87,.37-.74,1.36-.74,2.22,2.22,.25,5.06,6.66,8.14,2.22-1.85-.87-1.97-3.33-.74-4.45-3.21-2.34-2.47-6.91-6.66-8.14,2.46-1.36,.49-2.47,.74-3.7-4.2,.13-2.35-4.69-5.93-5.92l-.74,.74,1.48-1.48c-2.22-.61-3.94-2.1-6.66-1.6l2.96-1.48c.13-.99-1.72-2.1,0-2.96,3.7-1.11,3.46,3.33,4.44,5.18l.74-.74c2.72,.99,6.79,7.65,10.36,6.04,1.23,2.84,2.84,.13,4.44,0,.99,.87-.74,2.72,1.48,3.7,.49-.74,1.72-1.23,1.48-2.22l-.74-.74,2.96-2.22-.74-.74,2.22-1.48c-6.41-.37-1.36-7.15-8.14-6.79l3.7-1.48c1.11-1.98-2.71-3.08-4.44-3.7h-.74c-.25-.25,2.47-.12,1.48-2.22l-.74-.74c.74-.49,1.23-1.73,2.22-1.48l2.22,2.22c-1.6,.99-1.6,2.46-.74,3.7,.49,.99,1.36,.74,2.22,.74l1.48-1.48,1.48,1.48c1.35-.49,.49-1.98,.74-2.96-1.97-.49-3.21-1.61-3.7-3.7,.25-1.23-1.11-1.6-2.22-1.48-4.57,1.35-.13-4.44-4.44-3.7-.25-1.97,2.22-3.08,.74-5.18l-2.22-.74c.49-2.72,5.06-4.69,3.7-7.4,1.11,.12,.86,2.1,1.48,2.96-1.23,2.1-.99,4.44,0,7.41l.74,.74,1.48-1.48-.74-.74,.74-.74c1.61,.5-.25,2.59-.74,3.7l7.41,8.14c1.36-.74,.49-2.35,.74-3.7l-2.22-1.48,1.48-1.48c1.24,.74,1.85,3.09,3.7,2.22l.74-.74c1.23-3.82-5.55-2.34-7.4-5.92,4.07-4.69,7.77,3.58,12.59,2.96,.86,.74-.25,3.08,2.22,2.22l.74-.74c2.84,2.84,6.29,4.08,10.36,3.7l.74-.74c-1.85-3.33-5.68-2.34-8.15-4.44l5.18-.74c-.25-.99,.99-1.48,1.48-2.22,.25,1.48-.62,3.45,.74,4.44,3.82-.12-1.23-2.34,1.48-3.7l4.44,3.7c.99-.37,.74-1.35,.74-2.22,.74,.24,1.11-.25,1.48-.74-5.43-2.47-9.87-7.03-16.29-7.41,1.98-1.35,8.89-.49,11.84-.74,1.23,1.36,3.46,.49,5.18,.74l.74-.74c-3.58-2.96-9.13-1.72-12.59-5.18v2.22c-.25-2.47-.87-2.47-2.96-4.44,6.91-1.98,14.68,2.96,19.99,6.66-.74,.49-1.11,1.85-2.22,1.48l-1.48-1.48-1.48,1.48c4.81,.99,8.27,7.28,13.33,5.18,1.85,3.08,5.06,2.96,7.4,4.44l1.48-1.47c-4.07-.49-4.44-5.31-8.88-5.18,.61-.74,1.85-1.11,1.48-2.22-.74-1.6-2.22,1.11-2.22-1.48l.74-.74c-3.58-.49-6.54-4.81-9.63-4.44l-3.7-4.44c.49-.37,.99-.74,.74-1.48-7.16-2.1-15.3-8.51-22.95-2.96-.13-3.82,3.33-4.56,0-7.41,3.58-.49,10.73,1.24,13.33-1.48,2.84,2.84,7.77,.5,10.36,3.71l-2.96,2.22c2.1,3.21,5.55,3.08,8.88,2.96l.74-.74-5.18-2.96c1.61-2.47,3.95,.37,5.93-.74,4.2,3.82,8.14,6.29,13.33,8.88,1.48,1.61,1.73,4.56,4.44,4.44l.74-.74c-2.96-6.17-8.76-5.55-11.84-11.84,.49-.37,.99-.74,.74-1.48-4.44,1.61-9.62-3.94-15.54-3.71-4.81-8.26-18.51,1.24-20.73-8.14l-1.48-.74c5.55-3.82,13.33,4.57,18.5,3.7,.74,.25,1.11-.25,1.48-.74-3.21-4.69-11.6-5.43-12.59-11.11l.74-.74,2.22,2.22c1.85-3.7,4.81,.86,6.66-.74l.74,.74-2.96,2.22c.87,1.36,2.47,.49,3.7,.74,.87-.74-.25-3.08,2.22-2.22,0,2.84,2.84,3.08,4.44,4.44,3.83,.62,8.64,2.96,12.59,5.18-4.81,4.2,3.82,5.06,4.44,8.14,1.97,1.48,5.18,3.82,6.66,0-.74-.99-.37-3.08-2.22-2.96-1.35,3.46-3.45-.49-5.18-.73l-2.22-2.96,1.48-1.48c-4.07-2.34-5.8-5.67-8.14-8.88-1.48-1.97-2.96,.5-4.44,.74-2.47-6.17-6.66-2.34-10.36-6.67-4.68,1.85-14.55-4.07-15.54,2.22-1.73,.49-3.95,1.73-4.44,3.7l-5.18-.74c1.98,0,5.68-3.7,8.89-4.44-5.06-3.2-8.51,3.95-13.33,1.48-1.23,1.97-4.69,4.2-7.4,2.22-.87-2.59,2.46-4.07,4.44-4.44-1.6-2.84-4.19,.99-6.66,.74l-.74,.74-1.48-2.22c-.99,.87-.99,2.22-2.22,2.96,2.1-3.33-4.81-.86-5.18-3.7,5.55,.37,11.72-2.22,17.02-4.44-5.18-2.84-11.35,5.43-17.02,1.48,.49-.74,1.72-1.12,1.48-2.22l-.74-.74,1.48-1.48c-.49-.86-1.35-.74-2.22-.74,2.22-2.34,7.4-3.94,8.14-8.14,3.7-.12,7.15-2.47,9.62-3.7l-.74-.74,2.22-2.22c-1.6-2.35-4.69,.25-6.66,1.48-1.36,.86-6.67,1.6-8.15,4.44l-1.48-1.48c-.86,1.85-2.71,1.48-4.44,1.48-.87-1.85,1.48-2.47,2.22-3.7-.74-1.35-2.47-.49-3.7-.73-.74-2.22,3.21-3.21,.74-5.18-4.44,3.46-10,5.8-13.33,10.36l-2.96-.74c2.59-4.56,7.41-6.91,11.1-10.36-1.85-2.47-2.59,1.73-4.44,1.48-.25-.99,.61-2.47-.74-2.96-1.23,2.59-3.95,4.44-5.93,6.66l-.74-2.96c-1.48,.25-2.96,2.72-4.44,.74,1.11-1.73,2.96-1.97,4.44-2.96l1.48,1.48c.99-.49,.74-1.35,.74-2.22-.86-1.73-3.94,.49-3.7-2.22l2.22-2.22-1.48-1.48c-.24,3.7-4.32,1.23-5.92,2.96-2.47-1.85,1.73-2.59,1.48-4.44,.86,0,1.73,.12,2.22-.74-5.18-.25-1.73-5.8-2.96-8.14l-1.48,1.47c-1.48-.73,2.47-4.68,3.7-3.7,.25-.74-.37-1.11-.74-1.48-3.46-1.85-2.1,3.33-5.18,2.22-2.46-1.48,1.85-4.32-2.22-3.7-2.47-6.91,7.03-11.72,6.66-17.76-3.95,2.84-5.8,8.02-9.62,9.62,3.08-1.73-2.22-4.94-1.48-8.14l-2.22-2.22c-.99,.86-.99,2.1-2.22,2.96,.62-4.2-2.46-7.65,.74-11.84l-.74-.74c-1.23,2.22-3.58,3.94-3.7,6.66-3.7-5.18,2.59-6.05,1.48-10.36-1.73,.74-2.47,3.08-5.18,2.22l4.44-3.7-4.44-2.22c3.21-1.11,7.89-1.11,11.1,0l-2.96,1.48h0Zm-189.63,.74c-.73,.49-1.11,1.73-2.22,1.48l-.74-.74c.74-.86,2.1-2.47,2.96-.74h0Zm91.05,3.7h-5.92l.74-.74-2.22-2.22,1.48-1.48c-.13,3.7,3.94,2.96,5.92,4.44h0Zm136.33,0c-1.48,2.72-4.94,.99-7.41,1.48,1.97-1.61,4.94-3.21,7.41-1.48h0Zm-180.75,2.22c.87-1.36,2.47-.49,3.7-.74-2.84-1.48-6.54,3.33-7.41-1.48,1.85-.49,3.34,.61,3.7,2.22h0Zm202.21,.74c-1.97,3.33-4.94,0-7.4,0l-2.22-2.96c3.58,.25,6.29,2.34,9.62,2.96h0Zm-217.02-1.48l.74-.74,2.22,1.48-2.96-.74h0Zm48.11,0c-1.23,1.98-1.73-2.1-3.7-.74l3.7,.74h0Zm17.76,1.48c2.47,2.22,6.05,1.72,9.01,2.96-1.11-.25-1.48,.99-2.22,1.48-1.6-1.85-4.44-2.59-6.05-2.22l-1.48-1.48c-.86,.49-.61,1.35-.73,2.22l-1.48-1.48-1.48,1.48c3.58,4.94,8.76-.86,11.96,5.18l3.7-.74c-1.11-.24-1.48,.99-2.22,1.48,4.32-.13,1.73,6.17,5.18,4.44,2.96,1.85,4.07,4.94,5.92,8.15,2.59,3.82,7.03,9.99,7.4,16.28-.99-.86-.99-4.07-2.96-4.44-1.36,1.23-.62,3.46-.74,5.18-.49-.37-.87-.99-1.48-.74-.87,.87-1.97,1.6-1.48,2.96,2.47-4.32-7.65-8.14-5.18-14.81-3.58-4.93-4.68-11.47-10.36-14.8-.98,.49-.74,1.36-.74,2.22l-9.74-11.1c.74-2.96,4.93-.25,5.92-3.7,.25,.62-.25,.99-.74,1.48h0Zm-14.8,7.4c5.06,8.64,4.69,20.35,11.85,27.39,2.96-3.33,.86-5.55-.74-8.88l-2.96-10.36c2.84,2.83,1.6,7.4,5.92,9.62-.49,4.57,3.95,7.03,3.09,11.85-.74,.25-1.11-.37-1.61-.74-3.94,2.1,1.23,4.2,.74,6.67l1.61,1.48c-3.95,1.73,1.11,6.42,0,10.37l-3.09-2.22,1.48-1.48c-2.1-2.96-5.18,.49-7.4-2.96-4.44-7.4-6.91-16.28-13.33-22.21-2.34,1.11-.37,2.22,0,3.7,1.73,4.93,5.43,9.25,7.41,14.07-.37,.37-.74,.98-1.48,.73-1.97-5.18-6.79-12.95-11.84-17.76,.61,1.6-1.48,6.17,2.22,7.4l-.74,.74c-7.53-5.8-13.2-9.74-16.29-18.5h-1.48c0-.86,.25-1.73-.74-2.22,1.48,.49,2.1-.74,2.96-1.48l-3.7-3.7-.74,.74c-1.72-1.97-2.34-5.06-5.18-5.92v-1.48c3.33,.62,7.28,4.2,10.36,.74,1.73-.74,9.5,5.18,11.85-2.22l-2.96-1.48c5.68,1.11,10.61,3.82,14.81,8.14h0Zm6.66,.74c-2.59,0-5.3-4.44-7.4-5.92,1.48-.86-.13-2.1-.74-2.96,3.95,1.85,3.58,7.28,8.14,8.88h0Zm165.2-4.44c-.49,1.36-1.97,.49-2.96,.74l1.48-2.96c.49,.74,1.73,1.11,1.48,2.22h0Zm-323.61,0c-4.69,2.22-9.38,4.44-14.07,6.67v-.74c3.7-3.82,9.13-3.7,13.33-6.66l.74,.74h0Zm54.78,.74c-2.35,4.44-9.38,3.82-14.07,5.93l-2.22,2.22,2.22,1.48c-4.44,3.08-11.84,5.43-14.81,10.36-5.06-4.44-2.09,5.3-7.4,2.22-1.97,2.47-3.82,4.07-6.66,5.93-6.42,1.85-10.12,9.99-17.03,10.36-2.84,7.52-12.83,9.99-17.02,17.76,3.21,1.11,4.56-4.07,8.14-3.7-5.55,4.69-6.79,11.6-14.07,14.81,.62,2.22-1.11,3.08-2.22,2.96l-11.84,14.06c-2.59-1.6,1.85-3.2-1.48-4.44l.74-.74,1.48,1.48c.49-.87,2.1-2.1,.74-2.96-1.36,.25,4.07-1.6,.74-3.7l.73-.74c2.35,.25-1.72,2.35,1.48,2.22l.74-3.7,.74,.73c1.85-2.59,3.58-8.51,8.14-9.62l.74-2.22c.37,.98,1.36,.73,2.22,.73l.74-.73-2.22-2.22c5.55-3.7,6.42-9.87,11.1-13.33l-.74-.74c3.7-.99,4.44-5.8,8.15-8.14-.87-5.06,6.91-1.85,6.66-7.41,1.73-.24,2.59-2.84,4.44-2.96-.87-.99-2.22-.99-2.96-2.22l2.96-2.22c-.49-.37-.99-.74-.74-1.48l.74-.74c.37,.37,.99,.74,.74,1.48l-1.48,1.48c1.48,1.98,2.96-.49,4.44-.74l-1.48-1.48c.49-.74,1.73-1.11,1.48-2.22,6.17-1.85,15.79-10.37,23.69-15.55,7.65-1.85,16.29-5.92,24.43-2.22h0Zm151.87,1.48c-1.48,1.98-2.96-.49-4.44-.74l-.74-2.22c2.1,.13,3.7,1.23,5.18,2.96h0Zm-35.53,5.18c.25-1.85-4.07-2.71-1.48-4.44,.49,1.48,2.34,3.21,1.48,4.44h0Zm-84.51-.74h-1.48c.25-1.11-.99-1.48-1.48-2.22h-2.96c1.11-.99,3.34-.99,4.44,0-.25,.99,.99,1.48,1.48,2.22h0Zm7.4-1.48l2.22,2.22-2.22-2.22h0Zm39.24,2.96l-1.48-2.22h1.48v2.22h0Zm-88.83-.74c-.74,.49-1.11,1.72-2.22,1.48v-1.48h2.22Zm124.49,11.1c-3.21-1.48-6.17-5.55-6.05-9.63,3.2,2.1,4.81,6.05,6.05,9.63h0Zm188.02,.73l-.74,.74-8.88-7.4c4.94-2.72,6.17,5.18,9.62,6.66h0Zm-337.68-3.7c-.86,.74-1.6,1.98-2.96,1.48v-1.48h2.96Zm136.95,10.36c-4.19-1.86-9.74-4.81-14.06-8.88l1.48-1.48c2.84,5.31,8.39,6.91,12.58,10.36h0Zm168.9-6.67l-.74,.74c-1.23-3.2-3.45,0-5.18,0-2.35,.13-6.79-.62-9.62,.74,3.82-2.34,10.98-6.17,15.54-1.48h0Zm5.93,.74c-.87,1.98-2.96-.49-4.44-.74,1.23-2.95,3.33-.49,4.44,.74h0Zm-59.22-1.48c-1.11-.25-1.48,.98-2.22,1.48-.25,1.24,.13-2.84,2.22-1.48h0Zm-155.58,5.18l-2.96,1.48v-2.22c.99,.25,2.47-.61,2.96,.74h0Zm141.51,6.66l-.74,.74c-2.46-1.85-5.43-4.93-4.44-8.14,1.23,3.82,3.21,4.2,5.18,7.4h0Zm-21.47-2.95c-.61-.25-1.97-2.35-.74-2.96,.49,.86,2.1,2.22,.74,2.96h0Zm51.08,2.95l4.44-5.92-3.7,5.18-.74,.74h0Zm-290.31-3.7v-1.48l2.96,1.48h-2.96Zm370.25,2.22c-2.59,1.11-4.19-2.1-5.18-3.7,1.73,1.24,5.8,.25,5.18,3.7h0Zm-157.67,2.96c-2.34-.86-2.1-4.32-2.22-5.92,.74,1.97,4.81,3.46,2.22,5.92h0Zm120.66-5.18c-1.61,2.71-6.54,3.45-9.62,5.92-3.58,.13-6.67,1.24-9.63,2.96l.74,.74c-1.35-.49-2.1,.74-2.96,1.48,.25-.74-.25-1.11-.74-1.48,2.34,.99,3.82-1.48,4.44-2.96,2.84-.99,6.79-.74,8.15-3.7-4.57-1.11-9.01,2.47-14.07,2.22,7.89-1.73,15.79-5.67,23.69-5.18h0Zm-285.86,1.48l-2.96-1.48h1.48l1.48,1.48h0Zm144.47-1.48c.25,1.11-.99,1.48-1.48,2.22h-.74c-.12-1.12,1.11-2.22,2.22-2.22h0Zm-23.08,4.44c1.23,2.96-4.93,1.48-7.4-.74v-1.47c3.58-.25,3.7,5.3,7.4,2.22h0Zm71.19,0l2.22,1.48c-1.35,2.22-2.34-.99-3.7-.74l.74-2.96,1.48,1.47-.74,.74h0Zm39.24,2.22l2.96-4.44-.74,2.22-2.22,2.22h0Zm18.51-2.22c-.86,.99-2.22,.99-2.96,2.22l-.74-.74c.99-1.35,2.84-2.47,3.7-1.48h0Zm-147.44,7.41l-3.7,2.22c4.19,1.85,8.02,5.8,10.36,10.37,1.23-.13,1.72,1.23,2.96,.73l.74-.73c-.86-1.24-2.71-2.1-2.96-3.7l6.66,6.66c-1.36-.49-1.98,.74-2.96,1.48,1.6,3.82,5.93,4.44,5.93,8.88l-5.18-5.18c.49-.37,.99-.74,.74-1.48l-1.48-1.48-1.48,1.48c.49-1.36-.61-2.1-1.48-2.96-5.67,1.97-4.44-6.66-8.88-8.14l-.74,.74c-1.85-.87-2.22-6.91-5.18-9.62l-2.96-6.67c3.7,1.36,9.38,2.72,9.62,7.41h0Zm-125.84-2.96l-2.22,2.22v-3.7c.99-.25,1.48,.99,2.22,1.48h0Zm351-1.48l1.48,2.22-1.48-2.22h0Zm-248.85,8.88l-2.22-2.96,.74-.74,2.22,2.96-.74,.74h0Zm66.75,3.7c-.99,0-1.36-1.35-1.48-2.22l1.48,1.48c.74-.86,1.85-1.6,1.48-2.96l-1.48-1.48c-.49,.37-.87,.99-1.48,.74-.74-2.46,.86-1.85,2.22-2.96-.25,1.85,3.82,6.53-.74,7.4h0Zm-144.47-1.48v.74c-3.09,.61-5.8-4.2-8.15-.74l.74-.74c-2.96-3.58-6.91,3.95-10.36-.74,4.44,.74,9.62-5.31,12.58,0,1.48,.99,3.33,1.11,5.19,1.48h0Zm289.56-2.22h0Zm-204.43,3.7c-1.36,.49-2.1-.74-2.96-1.48l1.48-1.48c.99,.74,1.24,1.85,1.48,2.96h0Zm51.94,11.11l1.48-1.48-.74-.74c-1.11,.87,3.33,5.8,.74,8.14l2.22,2.22c-.62-.25-3.95,3.46-6.66,2.96,3.08,1.35,3.2-2.59,5.18-3.7,1.23-2.34-2.22-4.19-4.44-4.44,.49-.74,1.72-1.12,1.48-2.22-.49-.87-1.48-.74-2.22-.74,1.48-3.08-3.34-3.46-3.7-6.66l.74-.74c-3.46-2.1-2.09-4.2-4.44-6.66,4.94,4.07,5.68,10.49,10.36,14.07h0Zm-161.5-11.11l4.44-2.22c.37,4.44-2.71,0-4.44,2.22h0Zm44.42-.74l-2.22-1.48,2.22,.74v.74h0Zm153.35,1.48v-2.96l2.96,2.96h-2.96Zm-223.68-1.48c-.74,.49-1.23,1.73-2.22,1.48l-.74-.74c.86-.49,2.1-2.22,2.96-.74h0Zm337.68,0c-2.34-.25-4.44,.37-5.92,2.22-.74-.74-2.47-2.1-.74-2.96,1.98,.99,4.32,.74,6.66,.74h0Zm-136.95,14.07l-1.48,1.48,1.48,1.47-.74,.74-1.48-1.48,.74-.73c-.99-1.86-2.84-1.48-4.44-1.48l-.74,.74c1.98,1.6,2.59,2.71,2.22,4.44l.74-.74-4.44-2.22c5.43-3.82,4.19-10.36,4.44-14.8,1.24,3.33,.13,9.99,3.7,12.59h0Zm8.14-12.59h.74v3.7h-.74v-3.7h0Zm2.96,2.22l1.48-2.22-.74,1.48-.74,.74h0Zm112.52-1.48c-.25,.74,.37,1.11,.74,1.48h-2.22v-1.48h1.48Zm-102.9,5.92c-1.85-.86-1.98-3.33-.74-4.44h1.48l-.74,4.44h0Zm6.67-2.96l-1.48,1.48v-2.22c.61-.25,.99,.37,1.48,.74h0Zm-169.64,1.48l-6.67-1.48,5.93,.73,.74,.74h0Zm314.73,6.67c-.74,2.59,1.48,1.35,2.22,2.22l-1.48,1.47c-3.58-3.2-8.51-3.45-11.84-7.4,.49-.74,1.85-1.11,1.48-2.22l-.74-.74-2.22,2.22-2.22-2.22c2.72-2.71,5.43-.25,8.15,.74,1.97,2.84,3.33,5.06,6.66,5.93h0Zm-18.5-2.96l-2.96,2.96c-.74-.49-1.11-1.73-2.22-1.48l-.74,.74c-4.44-4.32-12.21-.87-17.76-2.96,6.79-5.31,17.4,.49,23.69,.74h0Zm-311.77-.74l-5.18-.74h4.44l.74,.74h0Zm256.25,.74c-1.23,0-2.47,.74-3.7,2.22l-.74-.74c1.61-.25,3.21-2.59,4.44-1.48h0Zm-237.74,2.22l-.74,.74v-2.96c.86,.49,.74,1.35,.74,2.22h0Zm160.76,0l-.74,.74v-2.96c.87,.49,.62,1.35,.74,2.22h0Zm-45.16,5.18c-.74,.25-3.2-1.36-2.96-3.7l2.96,3.7h0Zm-179.26,5.18c-1.11-2.59,1.85-2.34,2.22-3.7,4.32-.25,9.5-2.84,14.81-2.96-3.46,2.22-11.35,4.45-17.02,6.67h0Zm202.95-1.48c-2.96-1.48-4.2,3.58-4.44,.74l3.7-2.22c-.25,.74,.25,1.12,.74,1.48h0Zm-48.24,3.71l-.74,.74c1.24-2.35-3.33-2.96-4.44-3.7,4.32-.99,3.2,1.48,5.18,2.96h0Zm10.36,.74l-1.48-1.48,.74-.74-1.48-1.48c2.84-.25,.49,2.84,2.22,3.7h0Zm-173.96-2.22c-.86,.99-1.98,1.24-2.96,1.48l2.22-2.22,.74,.74h0Zm185.93,1.48l.73-2.22,.74,2.22h-1.48Zm8.14,.74l2.22,2.22,1.48-1.47-.74-.74,1.48-1.48c.37-.13-1.11,4.93,2.22,3.7-1.36,1.11-3.58-2.22-5.18,0,2.22,2.22-4.44,4.44,0,6.67h-1.48c-.13-4.2-.74-1.61-.74-5.18l-3.7,1.48c.37-.37,.87-.74,.74-1.48-1.98-.61,.37-4.44,.74-6.66l2.22,3.7,.74-.74h0Zm-174.82-2.22c-4.94,2.84-7.53,6.41-13.33,5.18,0-.86-.25-1.73,.74-2.22,.74,2.83,3.33,.25,5.18,0,1.73-.99,4.07-4.08,7.41-2.96h0Zm131.76,4.44c-.99-1.11-1.11-3.58-.74-4.44,.25,1.48,2.72,2.96,.74,4.44h0Zm69.71-.74l-2.22-.73,.74-.74-1.48-1.48c2.84-2.72,2.1,1.6,2.96,2.96h0Zm119.18-2.22c-1.35,3.2-3.58-.37-5.92,.74v-1.48l5.92,.74h0Zm-346.56,2.22c.99,2.22-1.73,3.58-2.22,4.44-1.85-1.6-.25-4.93,2.22-4.44h0Zm231.82,1.48l1.48,1.48-.74,.74c.49-1.23-1.97-2.47-.74-3.7h2.22l-2.22,1.48h0Zm-207.39,1.48c-3.46,2.1-7.53,5.3-11.85,2.96,1.11-.49,.49-2.47,2.22-2.22,1.6,3.95,2.96-1.35,5.18-.74h4.44Zm-28.13,2.22c.13,.74-.37,1.11-.74,1.48-.86,0-1.85,.25-2.22-.74l1.47-1.48c.37,.49,.74,.99,1.48,.74h0Zm236.27,.74c-.74,.99-3.08,.12-2.96-1.48,1.35-.49,2.09,.74,2.96,1.48h0Zm110.3,2.22c-.87,.12-1.73-.13-2.22,.74-.87,1.97,1.48,2.46,2.22,3.7l-3.7,2.96c3.46,.61,8.39-1.35,11.84-.74-1.73,1.73-7.28,2.1-11.1,2.96-.37-1.11-.25-2.47-2.22-2.96l-7.4,5.18c-.37-.37-.99-.74-.74-1.48l1.48-1.48c-.37-.37-.99-.74-.74-1.48,3.82-1.73,6.05-2.22,8.88-5.92l-1.48-1.48c.86-.87,3.08-.99,2.22-2.96l2.96,2.96h0Zm-325.1,.74l1.48-1.48c1.48,1.73-.74,3.82-2.22,5.18-.86-4.57-9.38,0-6.66-5.18-.99,4.19,4.44,1.98,7.4,1.48h0Zm-18.5,.74c-.99,2.1-5.55,1.6-5.18,5.18,.37,.99,1.36,.74,2.22,.74l-2.96,4.44-1.48-2.22-3.7,4.44-.74-.74c4.32-3.82,5.93-10.24,11.1-12.58l.74,.74h0Zm330.28,.73c-.87,2.71-3.33-2.22-4.44,1.48-.74-.74-2.47-2.1-.74-2.96,1.48,1.97,4.07-1.97,5.18,1.48h0Zm-126.58,2.96l-.74,.74c-.87-.74-2.47-2.1-.74-2.96,.49,.74,1.73,1.24,1.48,2.22h0Zm-192.59,0l-1.48,1.48,1.48,1.48,2.22-2.22c2.1-.49-.74,3.33-2.22,4.44-.37,2.34,2.47,3.45,3.7,5.18l2.96-2.22-1.48,1.48c1.11,2.35,2.22,.49,3.7,0l1.48-1.48-.74-.74c1.24-3.7,4.07,0,6.66-2.22-5.06,3.2-10.24,7.65-14.06,11.85l.74,.74h-3.7c2.47-2.59-2.34-5.93-.74-8.89l-1.48-1.48c2.96-1.97,.37-6.41,2.22-8.88,.37,.49,.99,.87,.74,1.48h0Zm5.92,2.96l3.7-2.96-1.48,2.96h-2.22Zm191.11-2.96h.74v2.96h-.74v-2.96h0Zm197.65,2.96c-.49-.86-2.1-2.1-.74-2.96,.61,.87,2.22,2.22,.74,2.96h0Zm-416.15,.74c-.99,.86-1.6,1.98-2.96,1.48l2.22-2.22,.74,.74h0Zm48.85,2.22l3.7-1.48-2.22,1.48h-1.48Zm154.84,.74c-.25,.99,.49,2.46-.74,2.96-1.36-.74-2.22-2.71-.74-3.7,.62-.25,.99,.37,1.48,.74h0Zm148.05,0c-2.1,3.08-6.54-.25-7.41,4.44-1.11-2.59-5.31-.86-7.4-2.96v-.74c.99-.86,2.84,.25,3.7,1.48,3.94,0,7.53-3.45,11.1-2.22h0Zm-355.45,1.48c.25,1.11-.99,1.48-1.48,2.22h-.74c.25-.49,1.61-1.85,2.22-2.22h0Zm367.29,2.96h0Zm-339.9,3.7l-.74-.74,2.22-2.22,.74,.74-2.22,2.22h0Zm333.24-2.22c-5.43,0-13.08,6.66-16.28,0,4.69,.25,9.87-.61,14.06,.74l1.48-1.48,.74,.74h0Zm25.17,0l-5.18-.74h4.44l.74,.74h0Zm-22.95,2.96c-.49,.99-1.35,.74-2.22,.74l-.74-.74c.87-.87,3.09-.99,2.22-2.96,1.36,.49,.49,1.97,.74,2.96h0Zm41.45,5.92l-8.88-5.18c4.32-.13,6.79,3.33,8.88,5.18h0Zm-389.5,5.18c0,.86,.37,4.44-2.22,4.44l2.22,2.22-4.44,5.93,.74,.74c-4.81,1.72-2.1,6.04-5.92,8.88,.37,.49,.86,.86,.74,1.48l-.74,.73c-.99-3.2-1.97-10.24,2.22-13.32l-.74-.74,3.7-2.22c-.49-.37-.86-.99-1.48-.74,2.35-2.84,5.68-4.44,5.93-7.4h0Zm380.61,5.92l.74-1.48,2.22,1.48h-2.96Zm-46.64,2.22c-.61-.13-1.85-2.22-.74-2.96,.62,.25,1.98,2.35,.74,2.96h0Zm19.99,.74c-.61-.13-.98,.37-1.48,.74-.25,1.11,.99,1.48,1.48,2.22l-.73,.74-2.22-2.22c-.49,.99-1.36,.74-2.22,.74-2.84-.99-.61-3.46-.74-5.18l5.92,2.96h0Zm-375.43,17.76l1.48,1.48-2.96,2.96c-.37-5.55,2.34-12.34,6.66-16.29-.98,4.32-3.94,7.77-5.18,11.85h0Zm316.95-5.18c2.1,2.47-1.48-1.61-2.22,.74l.74-2.22,1.48,1.48h0Zm76.99,2.22l-.74,.73,1.48,1.48c1.6-.12-.62,1.36-1.48,.74l-1.48-1.48,2.22-2.22-2.96-2.22c1.11,.86,3.7,.99,2.96,2.96h0Zm-31.09-2.22l4.44,4.44-4.44-4.44h0Zm65.88,.74l.86,5.18-.86-5.18h0Zm-43.68,.74l3.7,1.48-3.7-1.48h0Zm-53.3,2.22c-1.11-.24-3.34,.5-4.44,2.22l.74,.74-2.22,1.48c-.25-.99,.99-1.48,1.48-2.22l-.74-.74c1.23-1.6,3.46-3.08,5.18-1.48h0Zm50.34,2.96c3.82,1.85,9.38-.74,12.59,2.22-.49,1.24-2.47,.61-2.22,2.22l2.22,2.22c-1.73,.37-4.2-.87-5.18,1.6-1.6-4.44-7.65-6.05-9.62-7.53-.37-2.72-3.21-1.85-3.7-3.71,1.97,.99,4.57,.5,5.93,2.96h0Zm-374.69,7.53c3.58,.74-.99,3.46,2.22,5.18-2.96,1.97-.37,3.46-2.22,5.92-4.68-3.7,3.08-7.77-.74-11.1l.74-4.56,2.22,2.22-2.22,2.34h0Zm336.2-2.34l1.48-2.22,.74,.74-2.22,1.48h0Zm-289.56,.74c-.86-.99-3.08,1.72-4.44,3.08v2.96c-3.33,1.48-2.59-2.46-3.7-3.7,2.1,1.48,5.43-6.05,8.14-2.34h0Zm239.22,0c-.25,.99,.62,2.46-.74,3.08v-3.08h.74Zm-22.21,.74h.74v2.34h-.74v-2.34h0Zm-272.54,4.56l-.74,.73v-3.7c1.23-.25,.49,1.97,.74,2.96h0Zm353.23-1.48l-1.48,1.48c-1.73-.99,0-2.22,.74-2.96,.49,.37,.99,.74,.74,1.48h0Zm39.23,.74c4.94,2.22,10.49,4.44,14.81,6.66-4.94-2.47-9.01-2.84-14.07-2.96v2.22c-1.98-.74-1.98-1.6-3.7-2.96l.74-.74-2.96-2.22c2.1-2.96,3.33,2.59,5.18,0h0Zm-358.41,3.7l1.48-3.7v3.7h-1.48Zm251.81-2.22c-.49,.37-1.73,2.22-2.96,2.22,.49-.37,1.61-2.22,2.96-2.22h0Zm74.77,.74c.86-.74-1.6,1.48-2.96,.74,1.36,.49,1.98-2.84,2.96-.74h0Zm-84.39,1.48c2.22-1.24-.87,1.73-2.22,.74l.74-2.22,1.48,1.48h0Zm39.97-.74l1.48,3.7-1.48-3.7h0Zm35.53,1.48c2.34,1.98-1.61-1.6-2.22,.74h-2.22c1.85,.25,2.96-4.56,4.44-.74h0Zm-71.8,2.22l-.74,.74-.74-2.96c-.25,.99,.99,1.48,1.48,2.22h0Zm86.6,4.44c.25-3.21-5.92-2.22-3.7-5.93,2.34,.13,1.48,4.32,3.7,5.93h0Zm-333.23-2.96c-.74-.25-1.11,.25-1.48,.74l.74-2.96,.74,2.22h0Zm-34.79,.74l.74,.74-.74,.74-.74-.74c1.97-.99,.13-2.1,1.48-2.96l.74,.74-1.48,1.48h0Zm402.82,.74c-2.22-1.86-5.43-1.24-5.92,1.48-3.08-5.06,3.94-3.21,5.92-1.48h0Zm-395.42,.74l-.73,.74v-2.96c.86,.37,.61,1.36,.73,2.22h0Zm318.43,1.48l1.48,1.48c-.86,.74-1.6,1.85-2.96,1.48l-.73-.74c1.35,.37,2.1-.74,2.96-1.48l-1.48-2.22,1.48,.74-.74,.74h0Zm-316.95,3.7l1.48,1.48c-.49,.37-.86,.86-1.48,.74-.61-2.34-.25-3.33,.74-5.92,1.48,.37-.37,2.46-.74,3.7h0Zm305.11,5.93l-2.96-3.7c-1.73,2.34,3.2,7.15,1.48,7.4l-5.18-5.92c2.72-.74-.49-3.46,1.48-2.22l1.48,1.48c3.94-2.22-1.11-4.2-.74-6.66,2.22,2.84,5.18,6.41,4.44,9.62h0Zm17.03-6.67c-.49,.74-1.73,1.11-1.48,2.22,.99,1.24,2.96,.5,4.44,.74-1.23,.86-.62,2.59-1.48,3.7l4.44,.74c1.36,1.97-2.34,3.82-1.48,6.66,2.59,.25,3.7,4.44,7.41,2.96,.49-.74,1.73-1.23,1.48-2.22l-4.44-1.48,8.14,2.22c-2.71,1.11-7.65,2.22-11.84,.74-.25-2.22-2.59-2.47-4.44-2.22-.37,.37-.99,.74-.74,1.48l-2.96-1.48c3.08,2.47,6.05-1.35,7.4-3.7-.49-.99-1.36-.74-2.22-.74l.74-.74c-2.72-4.07-5.31,3.58-8.89,0l1.48-1.48,2.22,2.22c1.23-1.72,4.07-2.84,3.7-5.18-.87-.87-1.61-1.97-2.96-1.48l-1.48,1.48-2.22-2.22c1.97-.25,2.96-2.59,5.18-2.22h0Zm-329.54,2.96c-2.1,2.1,1.11-.99-1.48-1.48l.74-.74,.74,2.22h0Zm35.53,5.18c.49,.74-1.23-3.95,1.48-4.44l-.74-.74,2.22-1.48-2.96,6.67h0Zm237.74-5.18c-2.22,.12-4.44,2.72-6.66,.74,.61-.25,4.81,.74,5.92-2.22,.37,.37,.99,.74,.74,1.48h0Zm111.04,9.62c-3.33-2.22-5.43-6.29-7.41-9.62l7.41,9.62h0Zm17.02-6.66l-2.96-2.22c.99,.74,3.09,.37,2.96,2.22h0Zm-395.42,3.7h-.73l2.96-2.96-.74-.74c-.12,.74,1.48,3.2-1.48,3.7h0Zm263.66-1.48l-1.48,1.48c.37,.37,.98,.74,.74,1.48h-2.22c2.84-1.24-.74-2.34,1.48-3.7,.61-.25,.98,.25,1.48,.74h0Zm76.98,.74l.74-.74h.74v2.22h-.74c.25-.86-.61-1.85-1.48-1.48h-2.96c-.13-2.59,3.08-1.6,3.7,0h0Zm54.04,0l-2.96-1.48h1.48l1.48,1.48h0Zm-122.88,2.96c-.37,.99-.49,2.1-1.48,2.96v-2.96h1.48Zm4.44,1.48l2.96,.74-2.96-.74h0Zm5.93,2.22l-.74-2.22h2.22l-1.48,2.22h0Zm63.66,.74l1.48-2.22v2.22h-1.48Zm-303.63-1.48l-1.48,2.22,1.48-2.22h0Zm276.97,3.7l-1.48-3.7,1.48,1.48v2.22h0Zm-328.92-.74l.74-.74,1.6,2.96-2.34-2.22h0Zm334.84,2.22c-.49-.99-1.36-.74-2.22-.74-2.84,1.73-.13,2.47-2.96,2.22-1.36-4.81,5.06,.37,5.93-4.44l-.74,2.96h0Zm55.52,3.7l-4.44-5.18c1.85,.86,4.56,2.84,4.44,5.18h0Zm-40.72,2.22c-.37-.37,.25-3.46,2.22-4.44v-.74c-.99-1.24,2.47,.49,3.7-1.48-.87,.37-5.55,3.09-5.93,6.67h0Zm-2.22-4.44v-1.48h2.22l-2.22,1.48h0Zm29.61-.74c-.49,1.36-1.98,.49-2.96,.74l.74-1.48c.49,.87,1.36,.62,2.22,.74h0Zm11.1,12.58c2.47,5.18,4.19,10.61,7.4,15.55l-2.22,1.48c4.07,5.67-3.94,3.58-3.7,9.62l-1.48-2.22c-.37,.37-.99,.74-.74,1.48,0-.87-3.21-3.46,0-4.44l-2.96-2.22c1.11-.25,1.48,.99,2.22,1.48,2.59-2.59-1.23-6.17,.74-9.62l-1.48-1.48-2.22,3.7c0-.86,.25-1.73-.74-2.22h-1.48l2.22-2.22-1.48-1.48-3.7,2.96-.74-3.7c1.11,.25,1.48-.99,2.22-1.48,0-2.84,.37-4.81-2.22-7.41-1.11,2.6-4.2,.87-5.93,2.22,.99-3.21,3.82-6.17,5.93-8.14,6.54-1.6,5.31,7.03,10.36,8.14h0Zm-80.69-7.4c1.36,2.47,7.9,3.82,5.93,7.4-2.35,.37-.99-3.45-3.7-2.22l-1.48,1.48c1.61,1.12,2.22,2.84,2.96,4.45-8.51-1.12,2.72-1.85-5.18-4.45l-1.48,1.48c.37-.37-.37-4.69-2.96-5.92l-3.7,.74c.87-.49,.62-1.48,.74-2.22,3.46,.86,5.43-1.61,8.88-.74h0Zm-8.88,5.92l1.48-1.48,.74,.74c-1.11,.87-2.96,2.84-2.22,5.18l2.96,1.48h-2.96c.25-1.11-.99-1.48-1.48-2.22l-1.48,1.48c-.12-1.36-4.56-1.98-2.22-3.7-.74-.49-1.23-1.85-2.22-1.48l-1.48,1.48,.74,.74-2.96,2.96c-.12-2.72,3.21-2.84,1.48-5.18,.74-.37,2.59-2.71,3.7,0l2.96-2.96c.74,1.11,1.36,2.84,2.96,2.96h0Zm-39.23,0c-.87,.99-2.22,.99-2.96,2.22l-.74-.74c1.11-.74,2.22-3.7,3.7-1.48h0Zm-231.08,8.15c-1.23-.49-2.22-3.21-.74-4.45,2.47,1.48-1.73,2.96,.74,4.45h0Zm210.36-2.96c.25,3.82-2.22,.49-3.7,2.96h-5.18c2.46-.49,5.92-4.2,8.88-2.96h0Zm-202.21,.74c.25,.99-.99,1.48-1.48,2.22v-2.22h1.48Zm185.93,10.36c-.25,3.82-6.54,1.35-5.31,5.18-2.34-4.19-4.44,1.61-7.4,.74l-1.48,2.22c-1.23-2.72,4.2-5.3,2.22-8.14,2.34-.74,4.81-1.73,6.66-1.48l-1.48-2.22c3.46,.13,3.95,2.34,6.79,3.7h0Zm159.89,4.44l-4.44-1.48c3.94-1.36-1.73-3.46,.74-5.18,1.23,2.22,.86,5.06,3.7,6.66h0Zm-131.02-2.22c-.49,.86-1.48,.62-2.22,.74l-1.48-1.48c-2.84,.25-2.22,4.07-5.18,3.7,.25-2.96,4.94-2.96,5.93-5.92l2.96,2.96h0Zm-211.84,7.4c-3.21,1.24-.37,3.46-2.22,5.92-1.11-4.19-.86-6.41-2.96-11.1,.37,1.61,1.73,6.17,5.18,5.18h0Zm21.47-.74c-1.98-.61,.49-2.47,.74-3.7,1.48,.37-.25,2.47-.74,3.7h0Zm318.43-.74l2.22-.74-2.22,2.22-1.48-3.7c-.25,.99,.99,1.48,1.48,2.22h0Zm66,1.48c-3.7,1.85-1.85,7.4-4.44,10.36,0,5.92-3.33,12.34,0,17.76l-.74,.74c-.86-1.73-1.72-4.44-.74-5.92-1.73-4.81-6.17,3.94-5.31-2.96,1.35,0,2.1-1.48,3.08-2.22,1.11-7.4,3.82-12.46,5.92-18.5,.74,0,1.73-.25,2.22,.74h0Zm-423.68,2.22c.49,3.08-3.2,7.16-.74,11.11l-.73,.74c-1.11-1.98-4.57-5.06-2.22-8.15,1.97-.99,1.23-3.58,3.7-3.7h0Zm370.99,16.28c-1.85-2.72-.25-4.07-.74-7.4,2.96-1.36-.24-2.34,.74-4.44,1.85,2.22,.74,9.13,0,11.85h0Zm-180.74-2.22l-2.96,2.96,.74,.74-2.22-2.22,2.96-2.22c-.37-.98-1.36-.73-2.22-.73v-3.7c2.72,1.97,0,4.19,3.7,5.18h0Zm94.13-3.7c-1.35-.49-3.58,1.35-5.92,.74,1.23-2.59,4.81,.12,5.92-.74h0Zm-4.44,11.1l1.48,1.48,1.48-1.48,.74,.74c-1.23,1.72-4.08,2.84-3.7,5.18l-2.96-1.48-.74,2.96c.25-2.1-3.58-3.33-1.48-5.18-.49,1.35,.62,2.1,1.48,2.96,.99-2.47,4.07-1.35,4.44-3.7l-2.22-.74c1.97-1.98,2.22-5.55,2.22-7.41l2.96-2.22c.98,4.56-4.69,4.32-3.7,8.88h0Zm-268.1,0c-.49,2.22,.49,3.82,2.22,5.18h2.22c-2.34,6.29,3.95,9.5,8.14,13.33,1.11-.49,.49-2.59,2.22-2.22l.74,.74c-1.73,1.36-2.72,2.96-2.22,5.18l.74,.74c1.97-1.36,1.85-3.46,4.44-3.7,1.85,2.22,3.45,4.32,5.92,6.66l-3.7,.74c2.22,2.47,3.34,6.05,6.67,7.41l-2.22,2.22,5.18,5.18-.73,.74c.37,1.36,3.45,3.82,4.44,.74,.87,.12,1.73-.13,2.22,.74l-2.96,1.48c1.98,4.44,7.77,2.84,9.62,7.41,.87-.49,.62-1.36,.74-2.22l-1.48-1.48,4.44-.74c3.33-2.34-1.23-5.06-.74-8.14-1.11-.24-1.48,.99-2.22,1.48-.86-.87-1.97-1.6-1.48-2.96l2.22,2.22,1.48-2.96c1.98,1.36,1.98,4.07,4.44,4.44l.74-.74-1.48-1.48c5.92-3.08,1.48,10.12,8.88,5.18-.99-3.45-3.7-7.52-6.67-8.88-1.97-1.48-2.46-7.03-5.92-4.44-1.97-2.1,.99-3.58-2.22-5.18l.74-.74,1.48,1.48-.74,.74c.49,.99,1.36,.74,2.22,.74,2.72-1.85-2.1-2.34-.74-4.44l3.7,4.44c.74-.49,1.11-1.73,2.22-1.48l.74,3.71c1.11,.12,1.61-1.24,2.96-.74-.74,2.59,.74,6.17,3.7,8.14,1.98-3.21-3.82-5.92-.74-9.62l4.44,2.96-.74,.74c.74,1.35,2.47,.49,3.7,.74l1.48-1.48,2.22,2.22c-1.36,3.7-8.27-1.48-6.67,4.44,.99,1.36,2.96,.49,4.44,.74l.74-.74-.74,.74c4.69,1.24,9.38,4.69,14.07,3.7l-3.7-2.96,1.48-1.48c2.1,.37,5.06,2.84,8.14,2.96,9.06-5.08,16.05-8.32,36.27-9.62,2.1-2.72,7.53-.37,7.4-5.18l-.74-.74c.37-4.07,8.64-.74,3.7-5.18,1.85,0,2.34-3.08,4.44-2.22,.87,.86,1.97,1.6,1.48,2.96l-1.48,1.48c5.06-2.1,1.23,5.18,4.44,6.66l1.48-2.22c3.82,5.31-1.48,10.24,2.96,14.81,1.97,1.11,5.43,1.11,7.4,0l-2.96-1.48,2.22-4.44,.74,2.96,5.92-2.96c-4.93,3.21,1.73,7.16-2.96,11.1,.49,.99,1.48,.74,2.22,.74,.25,.99-.49,2.47,.74,2.96,2.59,.86,1.36-1.48,2.22-2.22,2.96,.87,4.44,.74,6.67-2.22,.25-.61-.25-.98-.74-1.48l5.92-2.96c-2.1,4.19,5.43,2.22,2.96,6.66,3.45-.37,3.7,1.98,6.05,3.7-2.47-.49-5.43,1.98-8.27,2.96-4.07-2.22-10.98,1.72-13.33-2.96-3.7,1.11-5.31-2.47-8.14-3.7-.37-1.35,.74-5.67-2.96-5.18l-.74,.74,1.48,1.47h-.74c.37,5.43-.37,10.49,2.96,15.55-1.73,2.22,.12,4.07,0,5.92l1.48-1.47c0,2.96-2.84,6.04-2.22,9.62-1.6-.74,1.11-2.22-1.48-2.22l-1.48,1.48c-.25,3.33,.62-.49-.74-.74,1.61-1.48,3.21-3.95,1.48-5.93-2.72-2.22-5.92-8.26-11.1-5.92-.74,2.59,1.48,1.35,2.22,2.22,1.97,1.6,4.32,5.55,7.4,5.92-1.24,2.47-4.81,1.6-6.66,.74l-.74-.74c-.49,1.24-2.1,1.98-1.48,3.71,2.59,3.21,8.88,5.42,7.41,9.62-1.97-.37-5.43,.37-7.41,2.22l1.48,1.48-2.22,1.47,.74,.74c-1.48,.99-5.18-.25-4.44,2.96-4.32-1.35-2.47-2.72-2.96-5.92,1.48,.74,0,3.33,2.22,2.96-2.59-3.94,4.81-6.41,2.22-10.36-8.14,3.21-16.66,5.68-25.16,8.15-4.32-.25-5.31-4.69-3.7-8.15,2.59-1.73,10.74,.99,10.36-5.18-1.73-1.24-3.45,.49-5.18-1.48,1.97-.99,3.33-5.8,5.92-2.96,2.47-1.73,3.82-5.18,7.4-5.18l1.48-1.48c-1.11-2.59-3.82-4.57-6.66-4.44-.65,7.85-7.39,9.79-13.76,11.32-3.02,.73-8.79,.57-15.85-9.1-.74-1.36-2.47-.49-3.7-.74-.49,1.48-2.1,2.47-1.48,4.44,2.47,1.73,4.44,3.08,3.7,6.66-.74,1.35-2.47,.49-3.7,.74-1.85-2.96-5.43-3.7-8.14-2.22l-2.22,1.48c-.12-3.82-2.47,1.23-3.7-1.48-3.2-2.47-6.78,2.34-8.88-2.96,1.48-5.55,15.42-3.58,8.88-11.1-2.46,.25-5.43-.62-7.4,.73v1.48c-4.19,.12-10.12-.86-11.1,3.7-3.7-1.48-10.12,.37-11.1-4.44l.74-.74c-3.08-2.84-6.66-4.56-10.36-5.92l-1.48,1.48-.74-2.96c-1.85-.12-1.48,1.98-2.22,2.96l2.22,2.22-.74,.74c1.48,1.36,3.95-.49,2.96,2.96l-1.48,1.48c1.48,2.1,2.59,2.1,4.44,.74h.74v1.48c-1.36-.49-2.1,.74-2.96,1.48l2.22,3.7c3.26-7.99-.37,0,4.44,5.92l.74-.74c.53,6.97,12.1,57.7,12.58,60.83,1.24,2.34,3.08,3.58,5.93,5.18-.87,1.73-3.95-.61-3.7,2.22h4.44l-1.48,1.48c.49,1.11,2.59,.49,2.22,2.22l-.73,.74c5.43,1.85-1.23,4.69,0,6.66l2.96,1.48c-2.59,1.11-6.54,2.47-5.18,5.92l2.22,2.96-.74,.74-1.48-1.48c-.99,.37-.74,1.36-.74,2.22l1.48,1.48-.74,.74c5.3-1.85,1.35,5.92,5.92,4.44l-1.48,1.48c.25-2.34-3.7-3.7-5.18-5.92-.87-.13-1.73,.12-2.22-.74-2.96,5.3,10.61,6.05,5.18,11.84-2.22,1.6,0,4.19-2.22,5.92,1.23,6.79,5.55,12.09,5.92,19.25,.49,.74,1.73,1.11,1.48,2.22-.49,.87-1.35,.74-2.22,.74-7.53-11.35-9.62-25.04-15.54-37.01,4.32-4.94-4.69-8.02-3.7-13.33h-1.48c1.47-2.16-10.55-39.65-15.54-51.2-4.94,.87,1.11-3.46-2.96-3.7l-.74-2.96-1.48,1.48c-1.35-.62,.99-2.96,1.48-4.44,1.85-.86,1.36-2.72,1.48-4.44l-2.22-.74c1.6-3.7,2.72-6.91,.74-10.36-1.6,2.22,.49,9.38-4.44,6.66-17.35-14.46-6.51-30.95-15.54-43.67l-.74,.74-.74-.74,.74-.74,1.48,1.48c.86-.49,.62-1.35,.74-2.22l2.22,1.48c.98-3.82,1.6-7.15-1.48-9.62l-2.22,7.4-.74-5.92h-.74c-1.73-1.86,3.58-6.79-.74-6.67l-3.7,3.7c-4.19-1.23,.25-4.69-2.22-7.4,.37-3.46-2.22-6.42-1.48-9.62-.49-.74-1.85-1.11-1.48-2.22l.74-.74c-.99-.99-2.22-.99-2.96-2.22-.99,.74-1.6,1.98-2.96,1.48l-.74-.74c3.09-.99,2.96-3.95,4.44-5.92-.62-1.36-2.1-.49-2.96-.74-2.22-2.35,1.48-4.32-2.22-5.93l.74-.74,2.22,2.22,.74-3.7c4.07-1.11,6.17,3.7,8.88,6.67h0Zm176.18,1.48c-1.48,.12-2.72-.13-3.7-1.48l3.7-1.48v2.96h0Zm128.18,2.22l-2.22-2.22c.74-1.36,2.46-.49,3.7-.74l-1.48,2.96h0Zm-274.02-.74c-.24,.74,.25,1.11,.74,1.48l-.74,.74-1.48-2.22h1.48Zm145.09,2.22c-.37,.87-1.35,.74-2.22,.74v-1.48c.87,0,1.85-.25,2.22,.74h0Zm-34.79,2.96c.13,1.85-.12-.74,.74-.74l-1.48-1.48,.74-.74,1.48,1.48-1.48,1.48h0Zm167.42,7.4c.74-.37-1.85-8.26,2.22-10.36-.61,3.46,1.6,8.14-2.22,10.36h0Zm-171.12-8.88l.74-.74,.73,2.22-1.48-1.48h0Zm-105.86,3.7h-.74v-3.7c-.24,1.48,2.96,2.34,.74,3.7h0Zm142.87,4.44c-.86-2.22,0-3.2,.74-5.18l-.74,5.18h0Zm119.3-2.22l2.22-2.96-.74,2.96h-1.48Zm-156.31-.74l.74-1.48,4.44,.74-5.18,.74h0Zm130.41,0c-2.72,.12-1.73,3.08-2.96,4.44,3.7,2.83,6.05-3.7,10.36-1.48,.49-.74,1.73-1.11,1.48-2.22,.74,2.1,2.96,1.11,4.44,0-2.35,.98-1.11,3.33-1.48,5.18-5.8-3.7-9.5,3.46-16.29,0l-2.22,2.22-1.48-1.48,.37,.61-7.4,5.18-.37-.61c4.69-.87,4.44-7.16,10.36-6.67,1.48-.86,1.48-2.47,2.22-3.7l-.74-.74c2.6,1.48,1.36-3.58,3.7-.74h0Zm-239.96,5.92c-1.98,.86-2.34-1.6-2.22-2.96,.74,.99,3.08,.99,2.22,2.96h0Zm148.05,2.22c-.49,1.35-1.97,.49-2.96,.74l-.74-.74,2.22-2.96c.87,.87,1.97,1.6,1.48,2.96h0Zm-166.55,2.96v-5.18l2.22,2.96-2.22,2.22h0Zm328.05,0c-.37,.37-.73,.99-1.48,.74l-2.22-2.22c1.73-1.48,3.45-.49,3.7,1.48h0Zm-316.95,.74c-1.11,.12-2.22-1.73-2.96,0-.25,1.48,.12,2.84,1.48,3.7-2.35,3.33,1.97,.74,2.96,2.22l-2.22,3.7c-.25-1.24,.61-2.96-.74-3.7h-1.48c0-.86-.25-1.73,.74-2.22-2.22-.74-2.22-4.44,0-5.18,.99-.25,1.48,.99,2.22,1.48h0Zm156.94,4.44c-.37,.99-1.36,.74-2.22,.74l-.74-5.18h-1.48c0-.87,1.36-1.36,2.22-1.48,.99,1.85-.25,3.7,2.22,5.92h0Zm71.93-5.18c-2.1,2.84-1.73,.12-3.7,2.96,.86,.49,.61,1.36,.74,2.22-1.23-1.73-3.58-.12-3.7,1.48l-11.1-.74c1.24-5.92,5.8-.25,8.15-5.18,2.1,3.08,6.41-2.72,9.62-.74h0Zm159.27,.74c-1.6,.25-2.46,1.97-3.7,2.96-1.11,.25,1.73-3.58,3.7-2.96h0Zm-269.7,2.22l-1.48,1.48c-2.84,.99,2.71-1.48,.74-2.96,.49,.37,.98,.74,.73,1.48h0Zm-102.89,0c-.74,.49-1.23,1.73-2.22,1.48l-.74-.74c.87-.49,2.1-2.22,2.96-.74h0Zm245.15,0c1.23,2.22-1.48-1.35-2.22,1.48-1.11,.25,.86-2.47,2.22-1.48h0Zm-252.55,5.93l-3.7-3.7,.74-.74,3.7,3.71-.74,.74h0Zm313.99-4.45c1.73,4.45-4.94,5.93-7.4,8.88,2.46-2.96,4.69-6.66,7.4-8.88h0Zm-308.07,1.48c-.25,.99,.62,2.47-.74,2.96l-1.48-2.96h2.22Zm5.18,2.22l-.74,.74-.74-2.96c-.25,1.11,.99,1.48,1.48,2.22h0Zm136.21,4.44c-1.85-1.85-.74-3.08,0-5.18l.74,.74,1.48-1.48c-2.72,.49-.37,4.32-2.22,5.92h0Zm-175.44-1.47l-.74,.73v-3.7c1.36,.49,.49,1.97,.74,2.96h0Zm71.81,0l-.74-2.22h1.48l-.74,2.22h0Zm-39.24,2.96l-3.7-3.7,.74-.74c.61,2.21,5.31,1.85,2.96,4.44h0Zm309.55-2.22c.86,.87,1.98,1.61,1.48,2.96-.87,.99-2.1,.99-2.96,2.22l1.48,1.48c-1.23-.99-3.58-.87-3.7-2.96,4.69,.62,1.11-4.93,5.18-5.92,.25,1.11-.99,1.48-1.48,2.21h0Zm-298.45,1.48c1.61-.12-.74,1.23-1.48,.74v-2.22l1.48,1.48h0Zm-22.95,.74h.74v3.7h-.74v-3.7h0Zm162.86,4.44c-.37,.5-.74,.99-1.48,.74l-1.48-1.48,1.48-1.48c.62,.74,1.85,1.24,1.48,2.22h0Zm-39.23-.74h.74v2.96h-.74v-2.96h0Zm-121.4,7.4l-.74-.74c-3.33,1.23,.25,3.33-.74,4.44,.49,.99,1.36,.74,2.22,.74-1.6,.99-1.73,2.47-.74,3.7h-2.22c-.25-3.94-2.71-12.21,2.96-14.8,2.34,.86-1.23,5.67-.74,6.66h0Zm241.45-.74c-2.34,0-3.58-2.46-5.92-.74-2.72,3.58,3.82,6.79,3.7,11.1-1.36-.5-2.1,.74-2.96,1.48,3.45,2.1,10.98-1.36,14.06,3.7-4.68,1.48-9.38,2.96-14.06,4.44,2.22,4.94,10.24,2.22,11.1,8.89h1.48c-2.1,1.23-.25,5.18-3.7,4.44l-1.48-1.48c-.74,.99-2.34,1.73-2.22,2.96l.74,.74c-2.59-.24-4.81-2.09-5.92-4.44l-5.18,5.92c1.48,2.47,2.96,4.93,4.44,7.4l1.48-1.48-.74-.74c.86,0,1.73,.25,2.22-.74-.49,1.48,.62,2.1,1.48,2.96,1.73-1.24,2.84-3.94,5.18-3.7-1.36,.49-.49,2.1-.74,2.96,.99,2.47,4.07,1.36,4.44,3.7-.37-3.33,4.07-2.71,4.44-5.93-.37-.37-.99-.74-.74-1.47,3.7,2.59-3.94,4.32-.74,8.14-2.1,1.24-1.73,3.33-3.7,4.44,.49,.99,1.35,.74,2.22,.74-2.34,2.47,1.85,1.98,1.48,4.44,1.23,.99,2.72,.86,3.7-.74-.49,1.35-2.1,2.09-1.48,3.7l1.48,1.47c.49-1.23,1.97-.49,2.96-.73-1.11,4.32-3.46,4.69-6.67,7.4l1.48,1.6-4.44,4.45,1.48,1.48,.74-.74c.13-.25-.61,3.08,1.48,3.7h2.22c.25,.99-.99,1.48-1.48,2.22l1.48,1.48,.74-.74c-3.95,.37-2.22,5.18-6.66,4.44l-1.48-1.48c-2.84,1.11-.37,2.96,0,4.44-.74-.25-1.11,.25-1.48,.74-1.73,4.2,6.05,3.46,2.96,7.41v2.22c-14.07-10.24-17.4-17.39-25.91-31.95-.25-2.72-2.47-6.41-3.7-9.62,.62-2.47-3.2-5.8-.74-6.67,1.11-2.96-2.46-3.82-3.7-5.92-.49,.99-1.48,.74-2.22,.74l.74-3.7c2.72-.86,4.93,3.46,7.4,0l-1.48-1.48c2.84-.61,4.07-4.44,2.96-6.66v-.74c2.72-.86,1.6,2.34,3.7,2.96l3.7-4.44c-1.98-2.71-5.55-1.6-8.14-2.96-2.47-2.71-3.08-9-7.4-8.14v2.22l-3.7-9.62c4.2-3.82,9.87-2.1,14.07-1.48,1.73,.25,2.59-3.94,4.44-1.48l1.48-1.48-1.48-1.48c-.49,.49-.86,.98-1.48,.73-6.56-11.83,14.55-17.69,14.06-8.88h0Zm-74.02,1.48c-.49-1.35,.62-2.1,1.48-2.96l-.74-.74,1.48-.73c1.11,.86,.62,4.93-2.22,4.44h0Zm84.39,2.22l-5.92,.74v-1.48c1.85,.49,3.7,.99,5.92,.74h0Zm-181.48,2.22c-2.22,1.85-6.17,2.72-9.62,1.48-2.1,.74-3.09-.99-4.44-2.22h-6.66c6.91,.25,14.31-.62,20.73,.74h0Zm2.22,.74l2.96-.74-.74,.74h-2.22Zm306.71,2.22h.74v2.96h-.74v-2.96h0Zm-2.34,8.89c-1.61-1.48,.25-3.21,1.6-4.44,.12,.87,.49,3.7-1.6,4.44h0Zm-380.61,2.22l.73-3.7,2.22,2.22-2.96,1.47h0Zm300.66,7.41c-2.47,3.33-4.07-.25-5.92,2.96,.86,.87,1.6,1.97,2.96,1.48-.37,.49-.99,.87-.74,1.48-1.97,.13-3.08-4.44-5.18-2.22l1.48,4.44c-4.2-3.82-4.56,5.31-8.15,.74-4.07,.12-1.23,5.67-5.18,5.18,.25-.98-.99-1.47-1.48-2.22l-2.22,2.22c.25-1.47-.12-2.84-1.48-3.7l2.22-2.22-.74-.74c3.33-1.85,1.85-4.07,2.96-6.66,.37,.49,.74,.99,1.48,.74,.49-.74,1.73-1.12,1.48-2.22l-1.48-1.48c2.59-1.11,3.21,2.1,5.18,2.22l.74-3.7c.37,.49,.74,.99,1.48,.74,1.36-.49,.49-1.98,.74-2.96,1.73,.74,4.94,1.48,5.18-1.48,2.71,1.61,7.52,3.09,6.66,7.41h0Zm-5.92-1.48c-1.85-.25-4.44,1.11-4.44,3.7-3.46-4.07,2.96-4.56,4.44-3.7h0Zm-78.47,0c-.49,1.48,.61,2.1,1.48,2.96h-1.48c.74-1.61-1.11-2.72-2.22-2.96h2.22Zm73.28,8.14l-.74,.74c-1.6-1.35-4.69-4.44-3.7-6.66,.37,3.08,4.82,2.59,4.44,5.92h0Zm-70.32-3.7l2.22-1.47-.74,2.96-1.48-1.48h0Zm37.01,3.7l1.48-3.7v2.22l-1.48,1.48h0Zm-19.25-1.48l-1.48,1.48,.74-2.96c.37,.49,.99,.87,.74,1.48h0Zm24.43,.74h-1.48l2.96-2.22c.25,1.11-.99,1.48-1.48,2.22h0Zm-45.9,2.96l.74-.74-2.96,1.48c.87,1.11,.25,2.84,1.48,3.7-1.11,.37-2.22,.49-2.96,1.48-1.48-3.58,.25-6.79,.74-10.36,.99,1.48,1.11,3.33,2.96,4.44h0Zm50.34-4.44h.74v2.22h-.74v-2.22h0Zm16.29,2.22c.86,1.98-1.48,2.47-2.22,3.7l-.74-.74c.25-1.23,1.73-2.71,2.96-2.96h0Zm-9.62,1.48c-.99,.5-.74,1.48-.74,2.22h-1.48c1.6-.49-.37-3.21,2.22-2.22h0Zm-34.05,.74l1.48,2.22-1.48-2.22h0Zm13.33,5.92c.25-.99-.99-1.48-1.48-2.22l.74-.74-2.22-2.96c5.55-.49,.61,3.46,2.96,5.92h0Zm-119.31-.74l-.74,.74c0-1.36-2.96-2.46-1.48-3.7,.74,.99,2.35,1.73,2.22,2.96h0Zm139.29,2.22c-2.6,.99-2.47,5.43-2.96,5.18,.37-3.34-4.94-.37-2.96-4.44l2.96-2.96c-.99,3.46,2.72,.87,2.96,2.22h0Zm3.7,1.48l-1.48-2.22h1.48v2.22h0Zm-51.82,2.22v.74h-2.22v-2.22c.99-.25,1.48,.99,2.22,1.48h0Zm39.24,1.48l-.74-2.96h1.48l-.74,2.96h0Zm58.48-1.48h-1.48v-1.48h1.48v1.48h0Zm-215.53,4.44l.74-4.44,2.96,1.48-3.7,2.96h0Zm147.43-2.96c-.73,.62-1.11,1.85-2.22,1.48l-.74-.74c.74-.74,2.1-2.35,2.96-.74h0Zm.74,8.88l-.74,.74h2.96l-2.96,2.96-.73-3.7-1.48,1.48c0-1.24-.74-2.35-2.22-3.7,3.08-2.96,2.34,2.47,5.18,2.22h0Zm-196.29,12.7c-.61-.25-1.85-2.34-.74-3.08,1.36,.62,.49,2.1,.74,3.08h0Zm272.54,.74l1.48-1.6-2.96,3.08,1.48,1.48c-3.82,.99,1.48-4.81-2.22-6.79,3.7,.25-1.23,2.84,2.22,3.82h0Zm-264.39,8.14c-.25,1.36-1.72,2.35-2.22,3.7l-2.22-2.96c.86-1.85,3.33-1.97,4.44-.74h0Zm260.7,8.89c-1.36-3.83-4.07,1.6-.74-2.22l-2.22-1.48c3.7,.74,2.59,.74,2.96,3.7h0Zm-4.44-1.48c-.49,.74-1.73,1.11-1.48,2.22,.74,.49,1.23,1.73,2.22,1.48l.74-.74-.74,2.96c3.95-2.1,1.36,4.32,5.18,5.18-1.72,1.6,0,3.58,.74,5.18-.49-.49-5.43,3.46-1.48,5.18v.74h-1.48c.61-3.83-2.72-6.17-2.96-9.62l-2.22,2.22c-3.21,1.11,3.58-2.22,.74-3.7l-1.48,1.48-1.48-1.48c1.48-.74,4.32-1.36,3.7-3.7,.99-3.33-3.46-4.32-2.96-7.4,1.36,.86,2.1-1.98,2.96,0h0Zm-251.81,2.96c1.11-1.6,2.22,1.48,3.7,1.48,.86,1.97-1.48,1.97-2.22,2.96,1.98,2.47,2.96-1.6,5.18-.74,1.36-.74-1.23-3.21,1.48-2.96l.74-.74,.74,.74c-2.22,1.61-1.73,2.96-.74,5.18,2.47,0-.12-1.48,1.48-2.22-.99,1.11,2.47,3.21-.74,4.44,.49,.86,1.36,.62,2.22,.74l1.48-1.48,.74,.74c-3.58,1.48-4.81,6.66-8.88,7.4-1.61-.74,.98-2.34-1.48-2.22l-1.48,1.48-1.48-1.48c-2.1,.13-1.97,2.47-2.96,3.7l2.96,.74c-.37,.37-.74,.99-1.48,.74l-1.48-1.48c-.99,.86-.99,2.09-2.22,2.96l2.96,.74-1.48,2.96c4.69,1.36,2.6-2.22,6.67-4.44l-.74-.74c1.85-2.47,2.22,1.85,3.7,1.48-2.34-1.23-3.94,2.09-5.92,3.7l.74,.74-2.22,1.48c1.23,.99,2.1,2.72,3.7,2.96,1.23,4.69-13.45,7.53-4.44,8.88-1.73,1.11,.62,5.3-2.96,4.44-.25-1.48,.62-3.46-.74-4.44-2.46-.13,.25,1.48-1.47,2.22-1.11-.49-2.22-.99-3.7-.74l2.96-1.48c-.87-.99-2.22-.99-2.96-2.22l1.48-1.48c-.37-.49-.99-.86-.74-1.48,3.95-1.6-1.48-3.08-.74-5.18l-2.22,2.22c-2.47-1.85,1.73-2.72,1.48-4.45l-2.22-.74c1.73-4.32,4.69-8.76,7.41-11.84,.12-1.24-1.24-1.73-.74-2.96l1.47-1.48,1.48,1.48c3.46-2.59-.25-4.82,4.44-5.92-.74-1.35-2.47-.61-3.7-.74l-2.22,2.22c-.86-.49-.73-1.48-.73-2.22,1.6-1.73,2.46-9.99,5.92-2.96h0Zm158.54,6.66c.74,.49,1.11,1.73,2.22,1.48l-2.22,2.22c5.31,.62,.86,3.95,2.22,7.41-1.11-.37-1.48,.99-2.22,1.48,2.22,1.35-.99,2.22-.74,3.7l-2.96-2.22c-5.43,1.85,0,9.5-5.92,9.62-1.11-2.35-.87-6.79-2.22-7.41,1.85,.99,1.48,3.46,3.7,3.7,2.1-1.97,1.97-4.94,2.96-7.4-5.92-2.35,2.22-6.05-3.7-8.89h-2.96c1.23,0,1.97-1.48,2.96-2.22l-.74-3.7c.61,.13,.98-.37,1.48-.74-.25-3.33-2.22,.74-1.48-2.96l1.48-1.48-.74-.74c6.53-3.7,5.06,5.67,8.88,8.14h0Zm-182.97-3.7l-1.48-1.48,.74-.74-1.48-1.48c0,1.48,4.82,1.23,2.22,3.7h0Zm76.25,.74c-4.68,7.4-6.05,16.29-7.4,25.17-3.95,5.06-10.12,10.36-11.84,17.02-1.6,5.06-5.92-1.24-8.14,2.96-3.82,2.09-1.23,7.4-5.18,8.88-.12,1.48,.13,2.84,1.48,3.7l-.74,.74c-2.34-.87-1.36-4.44-3.7-5.93,2.72-1.24,1.11-4.19,.74-5.92-1.6-1.61-3.2-3.95-1.47-5.93,.61-.61,3.94,.62,2.96-2.22l-.74-.74c4.32,1.23,2.72-3.83,5.18-5.18l2.22,3.7c2.71,.12,.74-2.84,2.22-3.7-4.93,1.98,.99-3.21-2.96-4.44l4.44-.74-1.48-1.48,2.22-2.22-1.48-1.48,.74-.74-1.48-1.48c.87-.99,3.09-.99,2.22-2.96-1.35-.37-2.34-.13-2.96-2.22l.74-.74c.74,.49,1.23,1.73,2.22,1.48-.61-6.05,7.03-6.05,9.62-11.11l.74,.74c.49-.49,.99-.87,.74-1.48l-2.22-2.22c4.44-1.48,6.79-2.96,11.1-4.44l2.22,2.96h0Zm-2.22,0l-3.7,.74c-1.85,1.24,2.59-2.59,3.7-.74h0Zm205.92,6.66c-.62-.24-1.85-2.34-.74-2.96,.49,.86,2.22,2.1,.74,2.96h0Zm-277.72,1.48c0,.74,.13,1.73-.74,2.22l-.74-2.22h1.48Zm5.92,4.44c-.74-.87-4.82,2.1-4.44-2.22l4.44,2.22h0Zm-17.77,5.92c-.99-3.94-8.14-1.23-5.18-5.92l5.18,5.92h0Zm65.88-2.22c.25-1.11-.99-1.48-1.48-2.22,.49-1.36,1.98-.49,2.96-.74l-1.48,2.96h0Zm121.52-1.48l-.74-1.48h3.7l-2.96,1.48h0Zm-141.51,4.44c-1.48,2.22-4.07,0-5.92,.74,1.48-1.35,3.95-.49,5.92-.74h0Zm-14.07,2.96c-.74-.25-1.11,.25-1.48,.74l-1.48-1.48c1.36-.74,2.35-1.11,2.96,.74h0Zm144.47,1.48l-.74,2.22,.74-2.22h0Zm-152.61,14.06l-2.22,1.48c-.37,.62,.37-4.32,2.22-1.48h0Zm87.35,6.66c-2.59,1.11-7.4-1.6-9.62-3.7l1.48-2.22c5.06-.25,3.58,7.52,8.14,5.92h0Zm-99.94,0c-1.48-.49-2.1-1.98-.74-2.96h.74v2.96h0Zm279.2,10.36c-1.97-1.85-4.81,2.96-3.7,3.7-1.11-2.72,1.85-4.94,2.96-8.15-.62,1.86,1.48,2.47,.74,4.44h0Zm-150.27,3.7c-.99,1.24-2.72,.61-3.7,1.48,.12-1.61,2.34-3.21,3.7-1.48h0Zm-82.29,3.7l1.48,1.48-2.96,1.48c5.67-.86,5.06,4.07,9.62,5.92l1.48-2.22c.25,1.23,0,4.07-2.22,5.18,.87,.74,1.6,1.98,2.96,1.48l.74-2.22c-.25,.74,.37,1.11,.74,1.48,2.71-.12,0-3.46,3.7-2.22,2.96-6.29,9.26-2.96,12.58-4.44,1.61,1.73,3.7,2.47,5.18,4.44-7.03,1.11-14.56,12.83-21.47,3.7l-.74,3.7-1.48-1.48c.49,1.73-2.34,4.56,1.48,5.18l-2.96,2.96,1.48,1.48c-1.6,1.73-3.21-.87-3.7,2.22l-2.22-2.22,.74-.74c-6.66-3.95-.12-7.77-4.44-12.58-.37-1.11-.25-2.47-2.22-2.96,3.95-3.58-7.53-10.49,.74-11.84l.74,2.96,.74-.74h0Zm228.12,0c-3.33,.49-2.1,4.2-4.44,5.93-5.8,3.94-6.04,12.34-11.84,16.28,1.36,1.23,2.34,2.96,4.44,2.22-1.23,0-1.98,1.48-2.96,2.22l3.7,3.7c4.56-2.72,3.21-10.86,10.36-6.67l1.48-1.48-2.22-2.22c-1.48-1.72,2.59-.12,2.22,1.48,.86,.74,1.6,1.97,2.96,1.48,1.23-1.73-.87-4.56-2.96-5.18v-.74c3.21-.37,2.72,3.33,5.18,4.44-2.1,1.23-1.72,2.96-.73,5.18,2.22,1.23,4.44-1.98,6.66-2.96-.25,1.11-.99,4.81,1.48,6.67l-.74,.73c-1.73-1.6-2.47-3.7-4.44-5.18l-1.48,1.48c3.34,2.09,4.44,6.41,6.67,9.62-.74,12.21,1.85,29.11-2.22,39.23,.99,2.47-2.47,4.81-1.48,8.14-9.62,3.83-20.6,4.32-30.35,8.15,3.46-5.93,10-10.61,12.59-17.03-.99-2.83-3.46-.61-5.18-.74l-25.91,22.95c-13.33,3.21-27.15,5.3-39.98,9.62-11.1,2.1-21.83,4.81-32.57,7.41,26.04-12.22,53.55-32.08,71.81-59.22l-.74-.74c8.02-12.21,16.04-27.51,27.39-37.01-.86-.49-.61-1.36-.74-2.22,3.7,.74,1.85-4.07,4.44-4.44,3.46-4.07,4.93-9.62,8.14-12.58l1.48,1.48h0Zm-47.38,5.93c-2.96,4.32,2.84,7.28-1.48,10.36,.37,.37,.73,.99,1.48,.74,.37,2.84-6.53,2.84-2.96,6.66v2.22c-1.11-.25-1.48,.99-2.22,1.48l1.48,2.96c-.74,.24-1.11-.37-1.48-.74-1.85,.98-1.48,2.84-1.48,4.44-1.36-.49-2.1,.74-2.96,1.48,.49,1.97,2.1,3.46,1.48,5.92-1.48-1.85,.25-7.52-4.44-7.4,3.2-2.96-4.44-4.19-.74-7.4-.99-.87-2.84,.25-3.7,1.48v3.7c-.74-.25-1.11,.37-1.48,.74-.99-6.41-8.14-4.19-11.1-8.88-6.05,3.33,2.22,5.8,2.22,8.88,.86,0,1.73,.25,2.22-.74l-1.48-1.48,2.22,2.22-2.96,2.22-.74-.74c-.99,2.96-3.95,1.24-4.44,4.44l.74,3.7h-.74l.74-.74c-4.32-.12-3.33-11.1-8.14-4.44,.25,1.85-.86,4.19,1.48,5.18,.49-.86,1.36-.74,2.22-.74-1.85,1.73,.74,5.43-2.22,6.67-.74-1.24-.74-2.72-2.22-3.7h-1.48c.99-1.6,3.34-4.56,.74-5.92-3.45,3.45-7.4,4.07-8.88,8.88l-5.92-3.7,1.48-2.22c-.87,1.85,1.48,2.47,2.22,3.7,2.96-2.47,8.15-2.71,8.89-7.4,3.58,1.97,5.92-3.58,5.92-6.67l-.74-3.7c-.49,.74-1.73,1.11-1.48,2.22-3.08-3.46,3.33-6.91,2.22-11.84,7.77-.25,16.04,3.08,22.21-4.45,.99-4.2-2.47-11.47,2.96-12.58,2.22,5.06,11.47-.99,12.58,5.19h0Zm-223.68,4.44c-3.33,1.97-2.96-3.45-4.44-5.18l.74-1.48c2.34,1.11,2.47,4.45,3.7,6.66h0Zm316.21,5.18c0,.86,.25,1.73-.74,2.22-.13-2.84-5.31-2.96-5.18-6.67,.99,2.35,3.46,4.2,5.93,4.44h0Zm-313.25,.74c4.93,11.22,13.32,21.59,20.73,31.09l1.48-1.48c-.37-.37-.98-.74-.74-1.48,4.32-1.73,.98,3.21,5.18,3.7,.49-.74,1.73-1.11,1.48-2.22l-.74-.74,.74-.74c2.1,3.58-1.36,10.49,2.96,14.07,1.97-1.97-1.11-6.17,2.96-4.44l-1.48,1.48c2.96,2.09-2.59,3.33,0,5.18v1.48c-3.82-.74-4.19-3.58-5.92-6.67,.37-.37,.99-.74,.74-1.48l-1.48-1.48-.74,.74-3.7-4.44c-2.22,1.36,1.36,3.58-2.22,2.96l-7.41-10.37c-4.93,1.61,.37,6.29-2.96,8.15,1.35,8.14-2.72,13.94-2.96,21.47l2.22,2.22c-2.47,1.97,1.48,3.09,.74,5.18-.37,5.68,.99,9.75-.74,14.07,1.85,9.99,2.59,16.9,2.22,25.9l2.22,2.22-1.48,1.48c.37,.49,.74,.99,1.48,.74l-2.96,1.48,2.22,1.48c-.61,2.46,1.48,3.94,.74,7.52l.74,.74c-1.35,.87-1.6,2.1-1.48,3.7l.74,.74c-.86,.99-2.22,.86-2.96,2.22,3.33,1.24,3.08,6.05,2.22,8.14h-1.47l1.47-1.48c-.49-.99-1.35-.74-2.22-.74-.25-1.11,.99-1.48,1.47-2.22-.49-1.35-1.97-.61-2.96-.74-.13-1.85,.74-3.08,1.48-4.44-.37-.49-.74-.99-1.48-.74-.49-1.85,.74-3.33,2.22-3.7-1.36-2.84-3.46-1.23-5.18-2.22,.86-1.11,2.22-.98,2.96-2.34-2.59-1.98-.87-5.67-4.44-7.4l2.22-1.48c-.61-1.97-3.95-.99-2.96-3.7,.74-1.48,3.21,0,2.96-2.22-9.13-.87,2.47-8.15-5.18-10.36-.98,.98-.98,2.22-2.22,2.96h-1.48l2.22-2.22-4.44-3.7c.49-.87,1.35-.62,2.22-.74l1.48,2.96,2.22-2.96c-.61-1.11-2.59-.49-2.22-2.22l1.48-1.48c-.49-.86-1.36-.61-2.22-.74,1.73-3.45-4.44-6.17-3.7-9.62,.74,.25,1.11-.25,1.48-.74-.49-1.35-1.97-.49-2.96-.74,.49-2.34-2.22-2.96-3.7-3.7l2.22-1.48-4.44-1.48,4.44-5.92c-.86-.98-2.22-.98-2.96-2.22,4.19-1.48,0-4.2-.74-6.67l-1.48,1.48c.37,.49,.99,.87,.74,1.48-.49,.99-1.36,.74-2.22,.74-.49-1.98-1.6-4.56-1.48-5.92-1.11,.61,3.33-.13,2.96,2.22,.74-3.45-3.95-7.28-2.22-11.1-.49-.86-1.35-.61-2.22-.74,1.73-.74,.74-2.1,0-3.7-.74-.25-1.11,.37-1.48,.74-.37-1.12-.49-2.22-1.48-3.7h-.74c-2.84,2.84,2.71-2.47,.74-3.7,2.22-1.6,7.41-1.72,4.44-5.92l-.74-.74c-1.35,3.7-6.41,3.7-5.92,8.14-1.11-.25-1.48,.99-2.22,1.48-.49,1.36,.62,2.1,1.48,2.96l-.74,.74-.74-2.22c-1.73-1.11-2.47,2.22-3.7,0,2.47-1.11,1.23-3.7,2.96-5.18l-.74-.74-9.62,11.1c2.47,4.19-3.95,3.94-5.93,5.92-3.58,4.2-6.78,5.8-10.36,8.14l-1.48,2.96-1.48-1.48,5.18-5.18c-.49-.87-1.48-.62-2.22-.74l2.22-2.22c-.74-1.36-3.08,1.35-2.96-1.48,1.11-.86,2.96,.99,4.44,1.48l.74,.74c3.7-2.96-2.96-7.28,3.7-8.88l-3.7-.74,1.48-2.22c7.65-4.45,15.91-7.28,22.95-13.33,1.11-.12,1.6,1.24,2.96,.74l2.96-2.96-.74-.74c1.97-4.44,6.67-5.18,9.62-8.88-2.09-1.85,1.73-3.21,1.48-5.18,4.69,.74,.87-5.18,5.18-5.18,1.48,.99-.13,4.56,2.96,3.7h0Zm328.18-2.96c.12,.74-.37,1.11-.86,1.48h-1.48v-2.22c.86,0,1.85-.25,2.34,.74h0Zm-53.42,2.96c.13,.86-3.08-1.36-2.22-2.96l2.22,2.96h0Zm-151.01,2.96c-4.44,3.33-12.83,0-19.37,0-2.22-2.1-5.31-1.97-8.14-2.96,9.62,1.11,15.67-2.47,23.81,2.22,.74-.99,2.59,0,3.7,.74h0Zm213.32,.74l-2.96,1.48c-1.48-2.22-2.34-4.32-5.18-4.44,3.21-3.7,6.29,.99,8.14,2.96h0Zm-77.85,0c0,.87,.25,1.73-.74,2.22l-1.48-2.22h2.22Zm80.81,2.96c-.99,.74-1.6,1.97-2.96,1.48l-.74-.74,2.22-2.96c.49,.74,1.73,1.11,1.48,2.22h0Zm-185.93,0c-.13,.87,.12,1.73-.74,2.22h-.74v-2.96c.62-.25,.99,.37,1.48,.74h0Zm31.09,3.7c.25,.74-.37,1.11-.74,1.48l-1.48-2.96c.99-.25,1.48,.99,2.22,1.48h0Zm17.02,1.48l-2.22-2.22,.74-.74,2.22,2.22-.74,.74h0Zm-60.7,0c-1.97,.12-6.54-.49-5.18,2.22-1.11-.25-1.48,.98-2.22,1.48l-.74-2.22c-.25-1.61,.12,1.48,1.48,.74l1.48-1.48c-.49-.37-.86-.99-1.48-.74,.74-3.95,4.44-1.23,6.67-1.48v1.48h0Zm-156.32,2.22l3.7-3.7h1.47l-5.18,3.7h0Zm145.95,0l-1.48,2.96c-1.11-.37-2.22-.49-2.96-1.48,.62-.62,3.82,.62,2.96-2.22,.61-.25,.99,.37,1.48,.74h0Zm22.95,2.96l-2.22,2.22-2.22-2.22-.74,.74-2.96-2.96c-.98,.49-.74,1.36-.74,2.22l1.48,1.48c-2.46,0-1.48,3.58-4.44,2.22l2.22-1.48c-2.1-2.96-3.21,1.24-5.18-.74,3.58,2.59,2.59-5.43,5.92-2.96,1.36-1.11,5.8-1.11,8.15,0,.37,.37,.99,.74,.74,1.48h0Zm8.14,3.7c-1.35-1.11-3.82-4.94-.74-6.66l.74,6.66h0Zm-171.12-3.7c-2.1,2.96-3.33-2.59-5.18,0v-.74l5.18,.74h0Zm197.77,2.22c-.74,.25-1.11-.37-1.48-.74l2.96-1.48c.25,1.11-.99,1.48-1.48,2.22h0Zm122.14-.74c.25,2.59-2.72,.74-3.7,2.22l1.48-3.7c.74,.49,1.23,1.73,2.22,1.48h0Zm-8.88,2.96c.74,3.08,3.82,4.68,2.22,7.4,1.6-2.34-2.47-5.55-3.7-7.4h1.48Zm3.7,1.48h0Zm-5.93,3.7l-3.7,4.44c1.11,2.84,3.46,.61,5.18,.74-1.85,.37-4.69,2.71-5.93,0-1.35-.37-.49-2.96-.74-4.45l1.48-1.48-2.22-1.47c2.34,2.59,4.93-2.35,5.92,2.22h0Zm-316.21,.74l-2.22-2.22,3.7,.74-1.48,1.48h0Zm157.8,0l-2.22,1.48-1.48-2.96c.87,1.36,2.1,1.73,3.7,1.48h0Zm-196.29,8.15c-10.36,6.04-22.21,13.57-33.31,17.02,9.87-6.66,21.09-10.49,31.09-17.02h2.22Zm29.61,6.66l.74-.74-5.18-1.48c1.61-1.35,7.53-.49,8.88-.74l-4.44,2.96h0Zm-6.67-1.48c.25,1.11-.98,1.48-1.48,2.22l-.74-.74c-.13-.87,1.35-1.36,2.22-1.48h0Zm6.67,5.18c.25,.74-.37,1.11-.74,1.48l3.7,1.48c.12,1.85-1.97,1.48-2.96,2.22l-1.48-1.48,1.48-1.48-2.22-2.96-1.48,1.48c-1.98-.25,.49-1.97,.74-2.96,3.46,0-.86,3.08,2.96,2.22h0Zm200.73,.74c-.99,.49-.74,1.36-.74,2.22l-.74-2.22h1.48Zm-238.49,2.22c-2.71,2.35-2.46,8.64-4.44,11.1,1.36,.87-.25,2.1-.74,2.96,.25-1.85-.87-4.69,1.48-5.92,2.22-2.84-.25-7.52,2.96-9.62,.37,.49,.99,.87,.74,1.48h0Zm240.71,5.18l-1.48-1.48-1.48,1.48,.74,.74c-.87,1.35-2.47,.49-3.7,.74,1.35,.49,2.1-.62,2.96-1.48,.25-.99-.99-1.48-1.48-2.22,1.85,.61,2.47-1.48,4.44-.74v2.96h0Zm-234.78-1.48c-.87,.86-1.61,1.97-2.96,1.48v-2.22c.99,.25,2.47-.61,2.96,.74h0Zm15.54,3.7l-2.22-2.96,2.22,2.22v.74h0Zm24.43,0l-1.48,1.48-2.22-4.44c4.2-1.73,1.23,3.08,3.7,2.96h0Zm311.03,.74l-.74,.74c.25-.61-.25-.98-.74-1.48l-2.22,2.96c1.35,2.96,4.94,.37,6.66,2.22-.99-.25-1.48,.99-2.22,1.48,.74-.86-3.21-.74-4.44,.74h-2.22c.13-1.73,4.44-3.58,.74-5.18v-1.48c.99-.24,2.47,.62,2.96-.74l-2.96-2.96c2.84,.86,3.46,1.23,5.18,3.7h0Zm-356.19-2.96c-.25,.99,.62,2.47-.74,2.96v-2.96h.74Zm37.76,2.96c-1.23,.74-1.85,3.09-3.7,2.22,0-1.35-3.08-2.46-1.48-3.7,.99,2.34,3.33,1.23,5.18,1.48h0Zm-15.55,3.7l-.74,.74c-.74-.49-1.23-1.73-2.22-1.48l-.73,.74-2.22-2.22c2.22,2.35,4.32-1.6,5.92,2.22h0Zm366.55,0c-12.71,13.2-26.77,26.53-40.72,38.5,.13-5.18-6.91-5.93-8.14-9.62,.49-1.36,1.85-2.47,2.96-3.7l-.74-.74c2.22-.87,5.3-3.95,4.44-7.4l-2.22-1.48c8.64,2.59-1.61-8.15,5.92-2.96l1.48-1.48-.74-.74c2.72-3.58,4.44,3.95,6.66-.74v1.48c.99,.99,2.84-.12,3.7-1.48l-1.48-1.48c6.17-3.7,14.81-4.56,22.21-6.66,2.22-.49,4.07-2.1,6.67-1.48h0Zm-274.76,5.93c-.87,0-1.73,.25-2.22-.74-.99-2.47,2.1-1.73,2.96-2.96,2.09,1.98-.62,1.73-.74,3.7h0Zm117.82-2.96c-3.33-.25,.49,.61,.74-.74l-.74,.74h0Zm-202.21,.74c-.49,1.35-1.98,.49-2.96,.74,.12-.62,2.34-1.85,2.96-.74h0Zm11.84,1.48c-.49,1.35-1.97,.49-2.96,.74l1.48-2.96c.49,.74,1.72,1.23,1.48,2.22h0Zm-6.66,0l.74-.74c1.97,1.48-1.6,6.17,3.7,5.18-1.36,2.84-5.3,2.72-7.41,5.18,.13-1.61,1.11-5.55,4.44-6.67-1.35-3.45-2.96,.62-5.18-.74v-2.96c-1.23,.86,2.6,2.47,3.7,.74h0Zm11.84,5.18c.37,.49,.74,.99,1.48,.74v.74h-2.96c1.24-.86-1.11-2.47,1.48-2.96h1.48l-1.48,1.48h0Zm168.16,2.96c-1.97-1.23,.49-2.47,.74-3.7,1.98,1.24-.49,2.47-.74,3.7h0Zm-205.92-2.22c1.61,4.69-5.8,6.17-7.4,9.62-8.39,3.08-12.71,10.98-20.73,14.81-9.13,7.4-18.01,12.34-26.03,20.85l27.51,3.7c13.69-4.69,26.4-11.6,39.23-18.63l-2.22-2.22,.74-.74c4.32,6.17,9.88-2.35,14.81-3.7,5.3-.37,8.39-12.95,14.07-5.92-4.69,7.4-13.21,8.64-19.25,14.06-13.21,5.55-25.79,12.58-38.5,19.37,17.4,3.46,32.57,17.02,36.27,34.79,2.47,8.39-.62,18.13-5.93,25.16-14.43,13.33-32.94,21.22-53.3,15.55-4.07-2.84-10.24-5.55-8.88-11.84,2.22-2.96,4.07-6.91,8.14-7.4l1.48,1.48c-4.93,1.48-5.18,7.28-3.7,11.1,15.67,9.38,35.91,2.72,48.86-8.14,7.28-9,5.43-20.85,3.7-31.83-4.32-14.06-18.02-22.82-31.09-26.65-16.16-.99-28.38,4.93-43.8,8.14-2.34,4.2-9.26,.86-13.33,2.96-9.99,4.07-19.37,9.74-28.13,17.02-8.27,3.82-13.45,10.12-21.47,14.81-2.84-.37-3.82,3.94-6.66,3.7-.74-.86-1.97-1.6-1.48-2.96,14.8-10.36,29.61-20.73,44.42-31.09-3.58-2.35-8.51-1.11-11.1-5.92,3.08-10.61,15.3-12.09,24.42-14.07,23.32,4.2,36.64-20.11,54.91-30.47,8.76-3.58,15.92-11.1,24.42-15.55h0Zm35.53,2.96l-4.44,1.48,.74,.74-2.22,1.48c-.25-.99,.99-1.48,1.48-2.22l-1.48-1.48c1.48-1.11,4.44-1.11,5.92,0h0Zm285.86,19.24c-.74,3.21,2.96,2.1,4.44,2.96l-.74,2.22c.12,1.72-.87-5.3-3.7-.74,.25-.99-.99-1.48-1.48-2.22h-3.7c-7.77,5.06-10.86,16.66-19.99,18.63,1.11-5.55,8.64-11.11,3.7-16.41h-2.22l-22.21,20.85v-2.96c6.67-11.23,13.33-22.33,19.99-33.43,10.24-4.44,21.35-6.79,32.57-8.88,2.96,10.12-18.01,10.98-6.66,19.99h0Zm-311.03-12.58h-1.48l1.48-3.7c.49,1.48,2.35,2.59,0,3.7h0Zm36.28-1.48v.74l-3.7-1.48,1.48-1.48c1.61,.37-.99,3.08,2.22,2.22h0Zm-10.36,.74c-.86,1.11-2.22,.99-2.96,2.22-1.97-.25,.49-1.97,.74-2.96,.87,.13,1.73-.12,2.22,.74h0Zm-21.47,3.7l-3.7-1.48,3.7,.74v.74h0Zm23.69,1.48c-.74,0-1.35-2.22-2.96-1.48l-.74,.74-.74-.74,2.96-1.48,1.48,2.96h0Zm278.45,2.22c-1.48,1.72-3.94,3.2-5.92,1.48-3.08-1.73-.61-4.82,.74-6.66,0,4.32,6.05,.49,5.18,5.18h0Zm-302.15,0l-.74-.74c.74-.99,1.85-1.11,2.96-1.48l-2.22,2.22h0Zm261.43-.74c-10.86,11.84-22.33,23.68-34.05,36.4,0-4.56,6.17-9.62,8.15-14.93-.99-.87-.99-2.1-2.22-2.96-4.2-.62-4.2,4.32-7.4,5.92-2.1-2.46-5.06-5.06-8.15-2.96-1.23,1.6-2.71,2.34-4.44,2.22,.12-1.47-.13-2.71-1.48-3.7h-2.22c-8.02,8.76-16.66,15.91-25.91,21.59l-7.4-8.14c4.94-5.43,8.02-13.57,14.81-16.41,16.16-1.11,30.1-9.62,45.9-9.62,6.66-4.56,15.79-6.05,24.42-7.4h0Zm-140.03,2.22v.74h-2.22v-1.48c.49,.98,1.48,.74,2.22,.74h0Zm-91.79,2.22c-.74,1.36-2.46,.62-3.7,.74v-1.48c1.24,.25,2.96-.5,3.7,.74h0Zm283.64,1.48c-.61,.25-.98-.25-1.48-.74l2.96-1.48c.37,1.11-.99,1.48-1.48,2.22h0Zm-174.82,1.48c-.74,17.15-17.27,25.79-26.65,39.36-15.05,13.33-30.1,28.87-47.38,35.53-1.98-.13-4.93,.49-5.18-2.22,.86-12.46,3.2-23.32,10.36-34.05l5.18-8.14c19.74-13.21,38.99-27.27,62.18-31.96l1.48,1.48h0Zm40.84,.74c-1.48,3.21-5.68,5.8-8.88,7.4-7.28,2.96-18.14,1.73-20.73,11.1,.86,.87,1.48,1.98,2.96,1.61,1.98-6.54,8.89-4.57,13.33-6.79-3.7,3.7-10.48,4.32-11.1,10.48l-23.81,21.47c5.8-15.92,14.68-31.95,28.99-43.05,5.92,.37,13.2-.37,19.24-2.22h0Zm128.06,6.66c-2.34,0-1.73,3.21-2.96,3.7v-3.7h2.96Zm-6.66,8.15l-.74-.74c.86-.74,1.6-1.85,2.96-1.48l-2.22,2.22h0Zm-99.94,23.81c2.96-8.52,9.5-18.14,18.51-21.59-2.1,8.64-11.6,14.69-18.51,21.59h0Zm46.64-18.5c-.99-.25-2.47,.49-2.96-.74l2.96-1.61v2.35h0Zm59.96,3.7c-1.23,.5-1.97,1.98-3.7,1.48-.12-2.47,3.09-1.73,3.7-1.48h0Zm-68.85,5.19l2.22-3.7v1.48l-2.22,2.22h0Zm-324.47-2.96c-8.39,4.81-16.04,16.04-27.39,9.62,1.23-3.33,5.55-5.55,8.88-6.66,5.68-2.1,12.46-2.1,18.51-2.96h0Zm31.95,1.48c-9.74,3.08-20.73,2.72-30.48,5.92,3.58-1.72,6.79-4.19,9.63-7.4l20.85,1.48h0Zm356.18,2.22l-.73,.74-3.7-2.96,1.48-1.48c-.25,1.48,1.48,1.73,2.96,3.7h0Zm-120.66,6.66l-17.77,12.58c3.7-6.91,5.8-14.56,11.1-20.73,.13,3.46,5.43,4.93,6.67,8.14h0Zm52.56-5.92l-2.22,3.7,2.22-3.7h0Zm65.14,6.66c-.74,1.35-2.1-.25-2.96-.74l2.22-2.22c1.36-.25,.49,1.98,.74,2.96h0Zm-1.48,3.7l-1.48,1.48c-.49-.99-2.1-2.22-.74-2.96,.74,.49,1.23,1.73,2.22,1.48h0Zm-269.58,4.44l-1.47-2.96,2.22,2.22-.74,.74h0Zm25.17-.74l-1.48,3.7,1.48-3.7h0Zm242.93,1.48c.25,2.72-2.84,.37-3.7,2.22,.49,.37,.99,.74,.74,1.48-.61,.25-.99-.37-1.48-.74,1.98-.99,.25-1.98,1.48-2.96h2.96Zm-97.71,5.18c-.49,.86-1.48,.62-2.22,.74v-2.96c.87,.61,2.96,.12,2.22,2.22h0Zm8.88,8.88l-1.48,1.48c.25-2.22-2.59-4.2-3.7-4.44l.74-.74c-.62-2.84-4.69-.25-3.7-3.7,5.31-.62,4.32,6.04,8.14,7.4h0Zm-170.38,1.48l-.74-2.96,1.48,2.22-.74,.74h0Zm184.44,15.54c3.33-.25,.74,4.69,4.44,3.7v2.22c-1.11,.25-1.48-.99-2.22-1.48l.74-.74c-6.29-4.56-11.23-11.1-15.55-17.02l.74-.74c4.56,4.32,8.76,9,11.84,14.06h0Zm-185.93-8.88h-2.22v-2.22c.49,1.11,2.59,.49,2.22,2.22h0Zm96.23,7.4c3.95,4.69,4.69,11.72,5.18,17.03,.74,.99,2.35,1.6,2.22,2.96-2.09,1.23,.99,5.8-2.22,7.4-1.85-2.72-2.59-6.05-2.22-9.62h-1.48c0-1.36,1.24-5.68-2.22-5.93l2.22-1.48-2.96-1.48,.74-15.55c0,1.6,3.33,5.06,.74,6.66h0Z"/></svg>